<?xml version="1.0" encoding="UTF-8"?>
<svg width="35px" height="48px" viewBox="0 0 35 48" version="1.1" xmlns="http://www.w3.org/2000/svg" xmlns:xlink="http://www.w3.org/1999/xlink">
    <!-- Generator: Sketch 64 (93537) - https://sketch.com -->
    <desc>Created with Sketch.</desc>
    <g id="Symbols" stroke="none" stroke-width="1" fill="none" fill-rule="evenodd">
        <g id="Icon/In-App" transform="translate(-10.000000, 0.000000)">
            <g id="svg-channel-in-app" transform="translate(10.000000, 0.000000)">
                <rect id="Rectangle" fill="#FFFFFF" x="2" y="2" width="25" height="44"></rect>
                <path d="M22.9067111,0 C25.7380664,0 29,3.12322099 29,5.79168932 L29,5.79168932 L29,42.2083107 C29,44.876779 25.7380664,48 22.9067111,48 L22.9067111,48 L6.0932889,48 C3.26193362,48 0,44.876779 0,42.2083107 L0,42.2083107 L0,5.79168932 C0,3.12322099 3.26193362,0 6.0932889,0 L6.0932889,0 Z M26.609,41 L2.39,41 L2.3907284,42.2083107 C2.3907284,44.0733692 3.94319825,45.5966891 5.89664979,45.6930271 L6.0932889,45.6978641 L22.9067111,45.6978641 C24.9515788,45.6978641 26.6092716,44.1355378 26.6092716,42.2083107 L26.6092716,42.2083107 L26.609,41 Z M26.609,8 L2.39,8 L2.39,39 L26.609,39 L26.609,8 Z M22.9067111,2.30213592 L6.0932889,2.30213592 C4.0484212,2.30213592 2.3907284,3.86446219 2.3907284,5.79168932 L2.3907284,5.79168932 L2.39,6 L26.609,6 L26.6092716,5.79168932 C26.6092716,3.92663081 25.0568018,2.40331088 23.1033502,2.30697292 L22.9067111,2.30213592 Z M17.3430657,4 C17.7058805,4 18,4.22385763 18,4.5 C18,4.75313051 17.7528579,4.96232731 17.4322078,4.99543559 L17.3430657,5 L12.6569343,5 C12.2941195,5 12,4.77614237 12,4.5 C12,4.24686949 12.2471421,4.03767269 12.5677922,4.00456441 L12.6569343,4 L17.3430657,4 Z" id="Combined-Shape" fill="#C5C5CA" fill-rule="nonzero"></path>
                <circle id="Oval" stroke="#767680" stroke-width="2" fill="#767680" cx="23.5" cy="22.5" r="10.5"></circle>
                <path d="M28.8181818,18 C29.4708033,18 30,18.5370908 30,19.2 L30,19.2 L30,25.8 C30,26.4624854 29.4706296,27 28.8181818,27 L28.8181818,27 L18.1818182,27 C17.5293704,27 17,26.4624854 17,25.8 L17,25.8 L17,19.2 C17,18.5370908 17.5291967,18 18.1818182,18 L18.1818182,18 Z M17.7127175,18.8350535 C17.6363191,18.9361529 17.5909091,19.062674 17.5909091,19.2 L17.5909091,19.2 L17.5909091,25.8 C17.5909091,26.1311146 17.8557205,26.4 18.1818182,26.4 L18.1818182,26.4 L28.8181818,26.4 C29.1442795,26.4 29.4090909,26.1311146 29.4090909,25.8 L29.4090909,25.8 L29.4090909,19.2 C29.4090909,19.1240688 29.3952078,19.0514409 29.3698794,18.9845872 L23.8166895,23.3914624 C23.7258508,23.4635573 23.6022372,23.4738566 23.5020343,23.4223602 L23.4541439,23.3914624 Z M28.8181818,18.6 L18.346,18.599 L23.6354167,22.7976074 L28.914026,18.6078501 L28.914026,18.6078501 L28.8181818,18.6 Z" id="Combined-Shape" stroke="#FFFFFF" fill-rule="nonzero"></path>
            </g>
        </g>
    </g>
</svg>