<?xml version="1.0" encoding="UTF-8"?>
<svg width="24px" height="24px" viewBox="0 0 24 24" version="1.1" xmlns="http://www.w3.org/2000/svg" xmlns:xlink="http://www.w3.org/1999/xlink">
    <!-- Generator: Sketch 41.2 (35397) - http://www.bohemiancoding.com/sketch -->
    <title>Icon / Instagram / Color</title>
    <desc>Created with Sketch.</desc>
    <defs></defs>
    <g id="Symbols" stroke="none" stroke-width="1" fill="none" fill-rule="evenodd">
        <g id="Icon-/-Instagram-/-Color">
            <rect id="Background-Fill" fill="#7C99B9" x="0" y="0" width="24" height="24" rx="12"></rect>
            <g id="Icon-/-Instagram" transform="translate(6.000000, 6.000000)" fill="#FFFFFF">
                <path d="M5.99054705,0.0189059081 C4.36361488,0.0189059081 4.15961488,0.0257592998 3.52067396,0.0549584245 C2.88301969,0.0840787746 2.44755361,0.185330416 2.06654705,0.333400438 C1.67259519,0.486485777 1.33851204,0.691326039 1.00547921,1.02435886 C0.672446389,1.35739168 0.467606127,1.69150109 0.314547046,2.0854267 C0.166398249,2.46648578 0.0651466083,2.90195186 0.0360787746,3.53957987 C0.0069059081,4.17852079 2.62582062e-05,4.38249453 2.62582062e-05,6.0094267 C2.62582062e-05,7.63641138 0.0069059081,7.84038512 0.0360787746,8.47932604 C0.0651466083,9.11695405 0.166398249,9.55242013 0.314547046,9.93347921 C0.467606127,10.3274048 0.672446389,10.6615142 1.00547921,10.994547 C1.33851204,11.3275799 1.67259519,11.5324201 2.06654705,11.6855055 C2.44755361,11.8335755 2.88301969,11.9348271 3.52067396,11.9639475 C4.15961488,11.9930941 4.36361488,12 5.99054705,12 C7.61747921,12 7.82150547,11.9930941 8.46044639,11.9639475 C9.0980744,11.9348271 9.53354048,11.8335755 9.9145733,11.6855055 C10.3085252,11.5324201 10.6425821,11.3275799 10.9756149,10.994547 C11.3086477,10.6615142 11.513488,10.3274048 11.6665733,9.93347921 C11.8146958,9.55242013 11.9159475,9.11695405 11.9450416,8.47932604 C11.9742144,7.84038512 11.9810678,7.63641138 11.9810678,6.0094267 C11.9810678,4.38249453 11.9742144,4.17852079 11.9450416,3.53957987 C11.9159475,2.90195186 11.8146958,2.46648578 11.6665733,2.0854267 C11.513488,1.69150109 11.3086477,1.35739168 10.9756149,1.02435886 C10.6425821,0.691326039 10.3085252,0.486485777 9.9145733,0.333400438 C9.53354048,0.185330416 9.0980744,0.0840787746 8.46044639,0.0549584245 C7.82150547,0.0257592998 7.61747921,0.0189059081 5.99054705,0.0189059081 M5.99054705,1.09827571 C7.5900919,1.09827571 7.7795186,1.10436761 8.41123851,1.13317287 C8.99529978,1.15982495 9.31249891,1.25745295 9.52358862,1.33945733 C9.80323851,1.44814004 10.0028009,1.57796061 10.2123939,1.78757987 C10.4220656,1.99722538 10.5518862,2.19676149 10.6605164,2.47638512 C10.7425208,2.68747484 10.8401488,3.00470022 10.8668009,3.58873523 C10.8956061,4.22045514 10.9017243,4.40988184 10.9017243,6.0094267 C10.9017243,7.60902407 10.8956061,7.79845077 10.8668009,8.43011816 C10.8401488,9.01420569 10.7425208,9.33143107 10.6605164,9.54252079 C10.5518862,9.82211816 10.4220656,10.0216805 10.2123939,10.231326 C10.0028009,10.4409453 9.80323851,10.5707659 9.52358862,10.6794223 C9.31249891,10.761453 8.99529978,10.859081 8.41123851,10.8856805 C7.77962363,10.9145383 7.59022319,10.9206039 5.99054705,10.9206039 C4.3908709,10.9206039 4.20147046,10.9145383 3.56985558,10.8856805 C2.98582057,10.859081 2.66859519,10.761453 2.45750547,10.6794223 C2.17788184,10.5707659 1.97831947,10.4409453 1.76870022,10.231326 C1.55910722,10.0216805 1.42928665,9.82211816 1.32060394,9.54252079 C1.2385733,9.33143107 1.14097155,9.01420569 1.11429322,8.43011816 C1.08551422,7.79845077 1.07939606,7.60902407 1.07939606,6.0094267 C1.07939606,4.40988184 1.08551422,4.22045514 1.11429322,3.58873523 C1.14097155,3.00470022 1.2385733,2.68747484 1.32060394,2.47638512 C1.42928665,2.19676149 1.55910722,1.99722538 1.76870022,1.78757987 C1.97831947,1.57796061 2.17788184,1.44814004 2.45750547,1.33945733 C2.66859519,1.25745295 2.98582057,1.15982495 3.56985558,1.13317287 C4.20157549,1.10436761 4.39100219,1.09827571 5.99054705,1.09827571" id="Fill-1"></path>
                <path d="M6,8.04010402 C4.8732855,8.04010402 3.95987386,7.12672311 3.95987386,5.99998659 C3.95987386,4.87327689 4.8732855,3.95989598 6,3.95989598 C7.12674133,3.95989598 8.04012614,4.87327689 8.04012614,5.99998659 C8.04012614,7.12672311 7.12674133,8.04010402 6,8.04010402 M6,2.85714286 C4.26425498,2.85714286 2.85714286,4.26427581 2.85714286,5.99998659 C2.85714286,7.73577785 4.26425498,9.14285714 6,9.14285714 C7.73574502,9.14285714 9.14285714,7.73577785 9.14285714,5.99998659 C9.14285714,4.26427581 7.73574502,2.85714286 6,2.85714286" id="Fill-4"></path>
                <path d="M10,2.71428571 C10,3.10875135 9.68020601,3.42857143 9.28571429,3.42857143 C8.89124865,3.42857143 8.57142857,3.10875135 8.57142857,2.71428571 C8.57142857,2.31979399 8.89124865,2 9.28571429,2 C9.68020601,2 10,2.31979399 10,2.71428571" id="Fill-5"></path>
            </g>
        </g>
    </g>
</svg>