<?xml version="1.0" encoding="UTF-8"?>
<svg width="24px" height="24px" viewBox="0 0 24 24" version="1.1" xmlns="http://www.w3.org/2000/svg" xmlns:xlink="http://www.w3.org/1999/xlink">
    <!-- Generator: Sketch 41.2 (35397) - http://www.bohemiancoding.com/sketch -->
    <desc>Created with Sketch.</desc>
    <defs></defs>
    <g id="Symbols" stroke="none" stroke-width="1" fill="none" fill-rule="evenodd">
        <g id="Icon-/-Olapic-/-Color">
            <rect id="Background-Fill" fill="#7C99B9" x="0" y="0" width="24" height="24" rx="12"></rect>
            <g id="Olapic" transform="translate(6.000000, 6.000000)" fill="#FFFFFF">
                <path d="M11.5,2.75 L11.5,11.5 L2.75,11.5 L2.75,11.75 C2.75,11.888 2.862,12 2.9995,12 L11.75,12 C11.888,12 12,11.888 12,11.75 L12,2.9995 C12,2.862 11.888,2.75 11.75,2.75 L11.5,2.75 Z M11,1.5 C11,1.362 10.888,1.25 10.75,1.25 L10.5,1.25 L10.5,10.5 L1.25,10.5 L1.25,10.75 C1.25,10.888 1.362,11 1.5,11 L10.75,11 C10.888,11 11,10.888 11,10.75 L11,1.5 Z M10,8 L0,8 L0,9.75 C0,9.888 0.112,10 0.25,10 L9.75,10 C9.888,10 10,9.888 10,9.75 L10,8 Z" id="Combined-Shape"></path>
                <path d="M3.5355,5.1215 C3.6265,4.97 3.8355,4.962 3.942,5.0895 L4.9775,6.3325 L6.7915,3.611 C6.907,3.4385 7.163,3.475 7.2335,3.6615 L8.6735,7.5 L10,7.5 L10,0.25 C10,0.112 9.888,0 9.75,0 L0.25,0 C0.112,0 0,0.112 0,0.25 L0,7.5 L2.1085,7.5 L3.5355,5.1215 Z M3,1.5 C3.5515,1.5 4,1.949 4,2.5 C4,3.0515 3.5515,3.5 3,3.5 C2.449,3.5 2,3.0515 2,2.5 C2,1.949 2.449,1.5 3,1.5 Z" id="Shape"></path>
            </g>
        </g>
    </g>
</svg>