<?xml version="1.0" encoding="UTF-8"?>
<svg width="24px" height="24px" viewBox="0 0 24 24" fill="#BD081C" version="1.1" xmlns="http://www.w3.org/2000/svg" xmlns:xlink="http://www.w3.org/1999/xlink">
    <title>icon-pinterest</title>
    <g id="Artboard" stroke="none" stroke-width="1" fill-rule="evenodd">
        <path d="M11.9820896,0.071641791 C5.39104478,0.071641791 0.0537313433,5.40895522 0.0537313433,12 C0.0537313433,17.0507463 3.1880597,21.3671642 7.62985075,23.1044776 C7.52238806,22.1552239 7.43283582,20.7223881 7.66567164,19.6835821 C7.88059701,18.7522388 9.06268657,13.7552239 9.06268657,13.7552239 C9.06268657,13.7552239 8.70447761,13.038806 8.70447761,11.9820896 C8.70447761,10.3164179 9.67164179,9.08059701 10.8537313,9.08059701 C11.8746269,9.08059701 12.358209,9.85074627 12.358209,10.7641791 C12.358209,11.7850746 11.7134328,13.3253731 11.3731343,14.7402985 C11.0865672,15.9223881 11.9641791,16.8895522 13.1462687,16.8895522 C15.2597015,16.8895522 16.8895522,14.6507463 16.8895522,11.4268657 C16.8895522,8.57910448 14.8298507,6.57313433 11.9104478,6.57313433 C8.52537313,6.57313433 6.51940299,9.11641791 6.51940299,11.7492537 C6.51940299,12.7701493 6.91343284,13.880597 7.41492537,14.4716418 C7.50447761,14.5970149 7.52238806,14.6865672 7.50447761,14.8119403 C7.41492537,15.1880597 7.21791045,15.9940299 7.18208955,16.1552239 C7.12835821,16.3701493 7.00298507,16.4238806 6.7880597,16.3164179 C5.30149254,15.6179104 4.37014925,13.4507463 4.37014925,11.6955224 C4.37014925,7.93432836 7.11044776,4.47761194 12.2507463,4.47761194 C16.3880597,4.47761194 19.5940299,7.43283582 19.5940299,11.3552239 C19.5940299,15.4567164 16.9970149,18.7701493 13.4149254,18.7701493 C12.2149254,18.7701493 11.0686567,18.1432836 10.6746269,17.4089552 C10.6746269,17.4089552 10.0835821,19.6835821 9.94029851,20.238806 C9.67164179,21.2776119 8.93731343,22.5671642 8.45373134,23.3731343 C9.5641791,23.7134328 10.7462687,23.9104478 11.9820896,23.9104478 C18.5731343,23.9104478 23.9104478,18.5731343 23.9104478,11.9820896 C23.9104478,5.40895522 18.5731343,0.071641791 11.9820896,0.071641791 Z" id="Shape"  fill-rule="nonzero"></path>
    </g>
</svg>
