<?xml version="1.0" encoding="UTF-8"?>
<svg width="24px" height="24px" viewBox="0 0 24 24" version="1.1" xmlns="http://www.w3.org/2000/svg" xmlns:xlink="http://www.w3.org/1999/xlink">
    <!-- Generator: Sketch 41.2 (35397) - http://www.bohemiancoding.com/sketch -->
    <desc>Created with Sketch.</desc>
    <defs></defs>
    <g id="Symbols" stroke="none" stroke-width="1" fill="none" fill-rule="evenodd">
        <g id="Icon-/-Polling-/-Color">
            <rect id="Background-Fill" fill="#7C99B9" x="0" y="0" width="24" height="24" rx="12"></rect>
            <path d="M12.0010085,6 C9.37748413,6 7.25096437,8.12701977 7.25096437,10.7500442 C7.25096437,13.3735685 9.37748413,15.5000883 12.0010085,15.5000883 C14.6245329,15.5000883 16.7510527,13.3735685 16.7510527,10.7500442 C16.7510527,8.12701977 14.6245329,6 12.0010085,6 L12.0010085,6 Z M14.4060309,9.94653669 L13.2860205,10.841545 L13.7410247,12.4315598 C13.771025,12.5315607 13.7305246,12.6370617 13.6505239,12.7015623 C13.5655231,12.7615629 13.455522,12.7665629 13.3660212,12.7115624 L12.0005085,11.8565544 L10.6354958,12.7115624 C10.545495,12.7665629 10.435494,12.7615629 10.3509932,12.7015623 C10.2709924,12.6370617 10.2309921,12.5315607 10.2604923,12.4315598 L10.7154966,10.841545 L9.59548616,9.94653669 C9.51048537,9.87653604 9.4809851,9.76653501 9.51548542,9.66653408 C9.55048574,9.56653315 9.64598663,9.50153255 9.75098761,9.50153255 L11.0960001,9.50153255 L11.7815065,8.13701987 C11.8610072,7.96651828 12.1410098,7.96651828 12.2265106,8.13701987 L12.9065169,9.50153255 L14.2510294,9.50153255 C14.3560304,9.50153255 14.4510313,9.56653315 14.4860316,9.66653408 C14.5205319,9.76653501 14.4905317,9.87653604 14.4060309,9.94653669 Z M10.3394931,15.7260904 C9.16798219,15.3340868 8.18347303,14.5400794 7.54196707,13.5085698 L6.03395305,16.115594 C5.92745206,16.3005958 6.08745355,16.5240978 6.29245546,16.4870975 L8.01247145,16.1965948 L8.61197702,17.83561 C8.68347768,18.0296118 8.94148008,18.0621121 9.05498114,17.8781104 L10.3394931,15.7260904 Z M13.662524,15.7260904 C14.8340349,15.3340868 15.818544,14.5400794 16.46005,13.5085698 L17.968064,16.115594 C18.074565,16.3005958 17.9145635,16.5240978 17.7095616,16.4870975 L15.9900456,16.1965948 L15.39054,17.83561 C15.3190394,18.0296118 15.061037,18.0621121 14.9475359,17.8781104 L13.662524,15.7260904 Z" id="Icon-/-Polling" fill="#FFFFFF"></path>
        </g>
    </g>
</svg>