<?xml version="1.0" encoding="UTF-8"?>
<svg width="36px" height="48px" viewBox="0 0 36 48" version="1.1" xmlns="http://www.w3.org/2000/svg" xmlns:xlink="http://www.w3.org/1999/xlink">
    <!-- Generator: Sketch 64 (93537) - https://sketch.com -->
    <title>svg-channel--mobile-push</title>
    <desc>Created with Sketch.</desc>
    <g id="Symbols" stroke="none" stroke-width="1" fill="none" fill-rule="evenodd">
        <g id="Icon/Push" transform="translate(-10.000000, 0.000000)">
            <g id="svg-channel--mobile-push" transform="translate(10.000000, 0.000000)">
                <rect id="Rectangle" fill="#FFFFFF" x="2" y="2" width="25" height="44"></rect>
                <path d="M22.9067111,0 C25.7380664,0 29,3.12322099 29,5.79168932 L29,5.79168932 L29,42.2083107 C29,44.876779 25.7380664,48 22.9067111,48 L22.9067111,48 L6.0932889,48 C3.26193362,48 0,44.876779 0,42.2083107 L0,42.2083107 L0,5.79168932 C0,3.12322099 3.26193362,0 6.0932889,0 L6.0932889,0 Z M26.609,41 L2.39,41 L2.3907284,42.2083107 C2.3907284,44.0733692 3.94319825,45.5966891 5.89664979,45.6930271 L6.0932889,45.6978641 L22.9067111,45.6978641 C24.9515788,45.6978641 26.6092716,44.1355378 26.6092716,42.2083107 L26.6092716,42.2083107 L26.609,41 Z M26.609,8 L2.39,8 L2.39,39 L26.609,39 L26.609,8 Z M22.9067111,2.30213592 L6.0932889,2.30213592 C4.0484212,2.30213592 2.3907284,3.86446219 2.3907284,5.79168932 L2.3907284,5.79168932 L2.39,6 L26.609,6 L26.6092716,5.79168932 C26.6092716,3.92663081 25.0568018,2.40331088 23.1033502,2.30697292 L22.9067111,2.30213592 Z M17.3430657,4 C17.7058805,4 18,4.22385763 18,4.5 C18,4.75313051 17.7528579,4.96232731 17.4322078,4.99543559 L17.3430657,5 L12.6569343,5 C12.2941195,5 12,4.77614237 12,4.5 C12,4.24686949 12.2471421,4.03767269 12.5677922,4.00456441 L12.6569343,4 L17.3430657,4 Z" id="Combined-Shape" fill="#C5C5CA" fill-rule="nonzero"></path>
                <path d="M14,13 L33,13 C34.1045695,13 35,13.8954305 35,15 L35,30 C35,31.1045695 34.1045695,32 33,32 L23.8058007,32 L23.8058007,32 L20.6971222,35 L17.6161175,32 L14,32 C12.8954305,32 12,31.1045695 12,30 L12,15 C12,13.8954305 12.8954305,13 14,13 Z" id="Rectangle" stroke="#767680" stroke-width="2" fill="#767680"></path>
                <path d="M21.5072088,27.2996882 C21.6485588,28.2752336 22.497996,29 23.5,29 C24.502004,29 25.3514412,28.2752336 25.4927912,27.2996882 L28.102878,27.2996882 C29.083294,27.2440783 29.8798034,26.5008376 29.9877055,25.5409135 C30.0956077,24.5809894 29.4834036,23.684604 28.5390108,23.4197437 L28.5390108,21.7371146 C28.540445,19.6494783 27.2249528,17.7799346 25.2378213,17.045549 L25.2378213,16.7090232 C25.2378213,15.7651558 24.4597722,15 23.5,15 C22.5402278,15 21.7621787,15.7651558 21.7621787,16.7090232 L21.7621787,17.045549 C19.7750472,17.7799346 18.459555,19.6494783 18.4609892,21.7371146 L18.4609892,23.4197437 C17.5165964,23.684604 16.9043923,24.5809894 17.0122945,25.5409135 C17.1201966,26.5008376 17.916706,27.2440783 18.897122,27.2996882 L21.5072088,27.2996882 Z" id="Path" fill="#FFFFFF" fill-rule="nonzero"></path>
            </g>
        </g>
    </g>
</svg>