<?xml version="1.0" encoding="UTF-8"?>
<svg width="48px" height="47px" viewBox="0 0 48 47" version="1.1" xmlns="http://www.w3.org/2000/svg" xmlns:xlink="http://www.w3.org/1999/xlink">
    <!-- Generator: Sketch 64 (93537) - https://sketch.com -->
    <title>svg-channel--web</title>
    <desc>Created with Sketch.</desc>
    <g id="Symbols" stroke="none" stroke-width="1" fill="none" fill-rule="evenodd">
        <g id="Icon/Web" transform="translate(0.000000, -1.000000)">
            <g id="svg-channel--web" transform="translate(0.000000, 1.000000)">
                <rect id="Rectangle" fill="#FFFFFF" x="1" y="1" width="46" height="44"></rect>
                <path d="M15.1885714,2.94857143 C14.5210959,2.94857143 13.98,3.48966729 13.98,4.15714286 C13.98,4.82461843 14.5210959,5.36571429 15.1885714,5.36571429 C15.856047,5.36571429 16.3971429,4.82461843 16.3971429,4.15714286 C16.3971429,3.48966729 15.856047,2.94857143 15.1885714,2.94857143 Z" id="Oval" fill="#C5C5CA" fill-rule="nonzero"></path>
                <path d="M9.92571429,2.94857143 C9.25823872,2.94857143 8.71714286,3.48966729 8.71714286,4.15714286 C8.71714286,4.82461843 9.25823872,5.36571429 9.92571429,5.36571429 C10.5931899,5.36571429 11.1342857,4.82461843 11.1342857,4.15714286 C11.1342857,3.48966729 10.5931899,2.94857143 9.92571429,2.94857143 Z" id="Oval" fill="#C5C5CA" fill-rule="nonzero"></path>
                <path d="M4.65428571,2.94857143 C3.98681015,2.94857143 3.44571429,3.48966729 3.44571429,4.15714286 C3.44571429,4.82461843 3.98681015,5.36571429 4.65428571,5.36571429 C5.32176128,5.36571429 5.86285714,4.82461843 5.86285714,4.15714286 C5.86285714,3.48966729 5.32176128,2.94857143 4.65428571,2.94857143 Z" id="Oval" fill="#C5C5CA" fill-rule="nonzero"></path>
                <path d="M47.3529835,7.50857143 C47.7103208,7.50857143 48,7.79638838 48,8.15142857 C48,8.47419239 47.7605957,8.7413998 47.4485948,8.78731549 L47.3529835,8.79428571 L0.647016535,8.79428571 C0.28967917,8.79428571 3.15747428e-13,8.50646877 3.15747428e-13,8.15142857 C3.15747428e-13,7.82866476 0.239404273,7.56145735 0.551405173,7.51554165 L0.647016535,7.50857143 L47.3529835,7.50857143 Z" id="Path" fill="#C5C5CA" fill-rule="nonzero"></path>
                <path d="M44.0142857,3.51428571 C44.3693259,3.51428571 44.6571429,3.80210266 44.6571429,4.15714286 C44.6571429,4.47990667 44.4192776,4.74711408 44.1092824,4.79302978 L44.0142857,4.8 L24.9771429,4.8 C24.6221027,4.8 24.3342857,4.51218305 24.3342857,4.15714286 C24.3342857,3.83437904 24.572151,3.56717163 24.8821461,3.52125594 L24.9771429,3.51428571 L44.0142857,3.51428571 Z" id="Path" fill="#C5C5CA" fill-rule="nonzero"></path>
                <path d="M44.9861653,0 L3.01383469,0 C1.34933975,0 0,1.35849599 0,3.03428571 L0,43.0285714 C0,44.7043612 1.34933975,46.0628571 3.01383469,46.0628571 L44.9861653,46.0628571 C46.6506602,46.0628571 48,44.7043612 48,43.0285714 L48,3.03428571 C48,1.35849599 46.6506602,0 44.9861653,0 Z M3.01383469,1.28571429 L44.9861653,1.28571429 C45.9453658,1.28571429 46.7229514,2.06857638 46.7229514,3.03428571 L46.7229514,43.0285714 C46.7229514,43.9942808 45.9453658,44.7771429 44.9861653,44.7771429 L3.01383469,44.7771429 C2.05463422,44.7771429 1.2770486,43.9942808 1.2770486,43.0285714 L1.2770486,3.03428571 C1.2770486,2.06857638 2.05463422,1.28571429 3.01383469,1.28571429 Z" id="Rectangle" fill="#C5C5CA" fill-rule="nonzero"></path>
                <rect id="Rectangle" stroke="#767680" fill="#767680" x="6" y="13" width="37" height="14" rx="2"></rect>
                <line x1="13" y1="32.5" x2="36" y2="32.5" id="Line-Copy-2" stroke="#C5C5CA" stroke-width="3" stroke-linecap="round"></line>
                <line x1="18" y1="38.5" x2="32" y2="38.5" id="Line-Copy-3" stroke="#C5C5CA" stroke-width="3" stroke-linecap="round"></line>
            </g>
        </g>
    </g>
</svg>