<?xml version="1.0" encoding="UTF-8" standalone="no"?>
<svg width="15px" height="9px" viewBox="0 0 15 9" version="1.1" xmlns="http://www.w3.org/2000/svg" xmlns:xlink="http://www.w3.org/1999/xlink">
    <!-- Generator: Sketch 47.1 (45422) - http://www.bohemiancoding.com/sketch -->
    <desc>Created with Sketch.</desc>
    <g id="icon-exports" stroke="none" stroke-width="1" fill="none" fill-rule="evenodd">
        <g id="icon-dropdown-arrow" transform="translate(-5.000000, -8.000000)">
            <mask id="mask-2" fill="white">
                <path d="M19.0798088,8.108 C19.0280433,8.04150588 18.9298066,8 18.8233344,8 L5.2937244,8 C5.18784049,8 5.08960376,8.04150588 5.03783829,8.108 C4.98548459,8.17449412 4.98783756,8.25623529 5.04254425,8.32145882 L11.8073493,16.3685176 C11.8602912,16.4316235 11.956175,16.4705882 12.0585294,16.4705882 C12.1608838,16.4705882 12.2567676,16.4316235 12.3102978,16.3685176 L19.0751028,8.32145882 C19.1298095,8.25623529 19.1321625,8.17449412 19.0798088,8.108 L19.0798088,8.108 Z"></path>
            </mask>
            <path fill="currentColor" d="M19.0798088,8.108 C19.0280433,8.04150588 18.9298066,8 18.8233344,8 L5.2937244,8 C5.18784049,8 5.08960376,8.04150588 5.03783829,8.108 C4.98548459,8.17449412 4.98783756,8.25623529 5.04254425,8.32145882 L11.8073493,16.3685176 C11.8602912,16.4316235 11.956175,16.4705882 12.0585294,16.4705882 C12.1608838,16.4705882 12.2567676,16.4316235 12.3102978,16.3685176 L19.0751028,8.32145882 C19.1298095,8.25623529 19.1321625,8.17449412 19.0798088,8.108 L19.0798088,8.108 Z"></path>
        </g>
    </g>
</svg>
