<?xml version="1.0" encoding="UTF-8" standalone="no"?>
<svg width="8px" height="13px" viewBox="0 0 8 13" version="1.1" xmlns="http://www.w3.org/2000/svg" xmlns:xlink="http://www.w3.org/1999/xlink">
  <path d="M1.5,3 C2.32842712,3 3,2.32842712 3,1.5 C3,0.671572875 2.32842712,0 1.5,0 C0.671572875,0 0,0.671572875 0,1.5 C0,2.32842712 0.671572875,3 1.5,3 Z M6.5,3 C7.32842712,3 8,2.32842712 8,1.5 C8,0.671572875 7.32842712,0 6.5,0 C5.67157288,0 5,0.671572875 5,1.5 C5,2.32842712 5.67157288,3 6.5,3 Z M1.5,8 C2.32842712,8 3,7.32842712 3,6.5 C3,5.67157288 2.32842712,5 1.5,5 C0.671572875,5 0,5.67157288 0,6.5 C0,7.32842712 0.671572875,8 1.5,8 Z M6.5,8 C7.32842712,8 8,7.32842712 8,6.5 C8,5.67157288 7.32842712,5 6.5,5 C5.67157288,5 5,5.67157288 5,6.5 C5,7.32842712 5.67157288,8 6.5,8 Z M1.5,13 C2.32842712,13 3,12.3284271 3,11.5 C3,10.6715729 2.32842712,10 1.5,10 C0.671572875,10 0,10.6715729 0,11.5 C0,12.3284271 0.671572875,13 1.5,13 Z M6.5,13 C7.32842712,13 8,12.3284271 8,11.5 C8,10.6715729 7.32842712,10 6.5,10 C5.67157288,10 5,10.6715729 5,11.5 C5,12.3284271 5.67157288,13 6.5,13 Z"></path>
</svg>
