<?xml version="1.0" encoding="UTF-8"?>
<svg width="24px" height="24px" viewBox="0 0 24 24" version="1.1" fill="#000000" xmlns="http://www.w3.org/2000/svg" xmlns:xlink="http://www.w3.org/1999/xlink">
    <title>icon-calendar</title>
    <desc>Created with Sketch.</desc>
    <g stroke="none" stroke-width="1" fill="inherit" fill-rule="evenodd">
        <g id="icon-calendar">
            <path d="M7,2 L17,2 L17,4 L19,4 L19,2 L24,2 L24,7 L0,7 L0,2 L5,2 L5,4 L7,4 L7,2 Z M0,8 L24,8 L24,24 L0,24 L0,8 Z M4,0 L5,0 L5,2 L4,2 L4,0 Z M7,0 L8,0 L8,2 L7,2 L7,0 Z M5,0 L7,0 L7,1 L5,1 L5,0 Z M16,0 L17,0 L17,2 L16,2 L16,0 Z M19,0 L20,0 L20,2 L19,2 L19,0 Z M17,0 L19,0 L19,1 L17,1 L17,0 Z"></path>
        </g>
    </g>
</svg>