<?xml version="1.0" encoding="UTF-8"?>
<svg width="24px" height="24px" viewBox="0 0 24 24" fill="#000000" version="1.1" xmlns="http://www.w3.org/2000/svg" xmlns:xlink="http://www.w3.org/1999/xlink">
    <desc>Created with Sketch.</desc>
    <g stroke="none" stroke-width="1" fill="inherit" fill-rule="evenodd">
        <g>
            <path d="M16,0.5 L16,0 L7.5,0 L7,0 L7,3 L8,3 L8,1 L15,1 L15,3 L16,3 L16,0.5 Z M1,3 L22,3 L22,4 L1,4 L1,3 Z M3,4 L20,4 L20,24 L3,24 L3,4 Z M7,7 L7,19 L8,19 L8,7 L7,7 Z M11,7 L11,19 L12,19 L12,7 L11,7 Z M15,7 L15,19 L16,19 L16,7 L15,7 Z"></path>
        </g>
    </g>
</svg>