<svg width="14" height="14" viewBox="0 0 14 14" fill="#1c1c1c" xmlns="http://www.w3.org/2000/svg">
    <g stroke="none" stroke-width="1" fill="inherit" fill-rule="evenodd">

<path d="M3.03979 9.75626L3.49148 9.97068L3.66874 9.59725L3.33531 9.35294L3.03979 9.75626ZM1.82999 12.3048L2.28168 12.5193L2.28168 12.5193L1.82999 12.3048ZM2.17555 12.6315L1.93612 12.1926L1.93612 12.1926L2.17555 12.6315ZM5.46813 10.8356L5.57529 10.3472L5.39276 10.3071L5.22871 10.3966L5.46813 10.8356ZM12.5 6C12.5 8.4038 10.1268 10.5 7 10.5V11.5C10.5006 11.5 13.5 9.11905 13.5 6H12.5ZM7 1.5C10.1268 1.5 12.5 3.5962 12.5 6H13.5C13.5 2.88095 10.5006 0.5 7 0.5V1.5ZM1.5 6C1.5 3.5962 3.8732 1.5 7 1.5V0.5C3.49938 0.5 0.5 2.88095 0.5 6H1.5ZM3.33531 9.35294C2.18998 8.51372 1.5 7.3106 1.5 6H0.5C0.5 7.68294 1.38846 9.16614 2.74427 10.1596L3.33531 9.35294ZM2.28168 12.5193L3.49148 9.97068L2.5881 9.54184L1.3783 12.0904L2.28168 12.5193ZM1.93612 12.1926C2.14875 12.0766 2.38554 12.3005 2.28168 12.5193L1.3783 12.0904C1.06673 12.7468 1.77712 13.4184 2.41498 13.0705L1.93612 12.1926ZM5.22871 10.3966L1.93612 12.1926L2.41498 13.0705L5.70756 11.2745L5.22871 10.3966ZM7 10.5C6.50654 10.5 6.02905 10.4467 5.57529 10.3472L5.36098 11.3239C5.88523 11.439 6.43458 11.5 7 11.5V10.5Z"/>
</g>
</svg>
