<?xml version="1.0" encoding="UTF-8"?>
<svg width="24px" height="24px" viewBox="0 0 24 24" version="1.1" fill="#000000" xmlns="http://www.w3.org/2000/svg" xmlns:xlink="http://www.w3.org/1999/xlink">
    <desc>Icon Info</desc>
    <g stroke="none" stroke-width="1" fill="inherit" fill-rule="evenodd">
        <g>
            <path d="M12,0 C18.627417,0 24,5.372583 24,12 C24,18.627417 18.627417,24 12,24 C5.372583,24 0,18.627417 0,12 C0,5.372583 5.372583,0 12,0 Z M13.1884766,8.7265625 L11.1230469,8.7265625 L11.1230469,18.4472656 L13.1884766,18.4472656 L13.1884766,8.7265625 Z M12.1689453,5 C11.7939453,5 11.5053711,5.09960938 11.3032227,5.29882812 C11.1010742,5.49804688 11,5.78222656 11,6.15136719 C11,6.50292969 11.1010742,6.77978516 11.3032227,6.98193359 C11.5053711,7.18408203 11.7939453,7.28515625 12.1689453,7.28515625 C12.5322266,7.28515625 12.8149414,7.18408203 13.0170898,6.98193359 C13.2192383,6.77978516 13.3203125,6.50292969 13.3203125,6.15136719 C13.3203125,5.78222656 13.2192383,5.49804688 13.0170898,5.29882812 C12.8149414,5.09960938 12.5322266,5 12.1689453,5 Z"></path>
        </g>
    </g>
</svg>