<?xml version="1.0" encoding="UTF-8"?>
<svg width="24px" height="24px" viewBox="0 0 24 24" fill="inherit" version="1.1" xmlns="http://www.w3.org/2000/svg" xmlns:xlink="http://www.w3.org/1999/xlink">
    <title>icon-link</title>
    <g stroke="none" stroke-width="1" fill="inherit" fill-rule="evenodd">
        <path d="M20.7825585,4.49784724 L18.9615585,2.81084724 C18.5185585,2.40084724 17.8055585,2.09884724 17.1015585,2.02284724 C16.4305585,1.94884724 15.8735585,2.08584724 15.5805585,2.40484724 L11.7715585,6.51984724 C11.3955585,6.92284724 11.3855585,7.57684724 11.9125585,8.01384724 C12.3195585,8.38984724 12.3435585,9.02084724 11.9675585,9.42484724 C11.5915585,9.83284724 10.9625585,9.85684724 10.5545585,9.48184724 C9.33855846,8.42984724 9.08855846,6.49384724 10.3015585,5.15984724 L14.1145585,1.04684724 C14.8515585,0.244847241 15.9915585,-0.114152759 17.3195585,0.0318472414 C18.4465585,0.156847241 19.5675585,0.645847241 20.3205585,1.34384724 L22.1415585,3.03084724 C22.8955585,3.72584724 23.4685585,4.80684724 23.6795585,5.92084724 C23.9275585,7.23384724 23.6565585,8.39684724 22.9155585,9.19384724 L19.1085585,13.3108472 C17.8725585,14.6218472 15.9215585,14.5238472 14.7795585,13.3928472 C14.3745585,13.0158472 14.3485585,12.3848472 14.7265585,11.9798472 C15.1015585,11.5718472 15.7325585,11.5488472 16.1385585,11.9248472 C16.6155585,12.4158472 17.2655585,12.3588472 17.6395585,11.9518472 L21.4495585,7.83784724 C21.7445585,7.51884724 21.8375585,6.95584724 21.7135585,6.29084724 C21.5825585,5.59384724 21.2265585,4.90684724 20.7825585,4.49784724 Z M3.98655846,18.9868472 L5.80655846,20.6728472 C6.24955846,21.0848472 6.96255846,21.3848472 7.66655846,21.4618472 C8.33855846,21.5348472 8.89555846,21.3988472 9.18855846,21.0798472 L12.9975585,16.9648472 C13.3735585,16.5618472 13.3825585,15.9068472 12.8555585,15.4708472 C12.4485585,15.0948472 12.4245585,14.4648472 12.8005585,14.0598472 C13.1765585,13.6508472 13.8055585,13.6268472 14.2135585,14.0018472 C15.4295585,15.0538472 15.6795585,16.9898472 14.4665585,18.3238472 L10.6545585,22.4378472 C9.91755846,23.2398472 8.77755846,23.5978472 7.44955846,23.4518472 C6.32255846,23.3278472 5.20155846,22.8388472 4.44855846,22.1398472 L2.62755846,20.4538472 C1.87355846,19.7578472 1.30055846,18.6768472 1.08955846,17.5628472 C0.841558461,16.2498472 1.11255846,15.0858472 1.85355846,14.2898472 L5.66055846,10.1728472 C6.89655846,8.86084724 8.84755846,8.95984724 9.98955846,10.0908472 C10.3955585,10.4678472 10.4205585,11.0988472 10.0425585,11.5038472 C9.66755846,11.9108472 9.03655846,11.9348472 8.63055846,11.5588472 C8.15355846,11.0678472 7.50355846,11.1248472 7.12955846,11.5318472 L3.31955846,15.6458472 C3.02455846,15.9648472 2.93155846,16.5288472 3.05555846,17.1928472 C3.18655846,17.8898472 3.54255846,18.5768472 3.98655846,18.9868472 Z M16.8015585,6.96984724 C17.2065585,7.34484724 17.2315585,7.97884724 16.8565585,8.38484724 L9.38155846,16.4548472 C9.00555846,16.8608472 8.37255846,16.8838472 7.96855846,16.5088472 C7.56255846,16.1328472 7.53855846,15.5008472 7.91355846,15.0948472 L15.3885585,7.02484724 C15.7645585,6.61984724 16.3975585,6.59484724 16.8015585,6.96984724 Z"></path>
    </g>
</svg>