<?xml version="1.0" encoding="UTF-8"?>
<svg width="48px" height="48px" viewBox="0 0 48 48" version="1.1" xmlns="http://www.w3.org/2000/svg" xmlns:xlink="http://www.w3.org/1999/xlink" style="background: #FFFFFF;">
    <!-- Generator: Sketch 63.1 (92452) - https://sketch.com -->
    <desc>Created with Sketch.</desc>
    <g id="Icon/Push" stroke="none" stroke-width="1" fill="none" fill-rule="evenodd">
        <rect fill="#FFFFFF" x="0" y="0" width="48" height="48"></rect>
        <path d="M32.9067111,0 C35.7380664,0 39,3.12322099 39,5.79168932 L39,5.79168932 L39,42.2083107 C39,44.876779 35.7380664,48 32.9067111,48 L32.9067111,48 L16.0932889,48 C13.2619336,48 10,44.876779 10,42.2083107 L10,42.2083107 L10,5.79168932 C10,3.12322099 13.2619336,0 16.0932889,0 L16.0932889,0 Z M36.609,41 L12.39,41 L12.3907284,42.2083107 C12.3907284,44.0733692 13.9431982,45.5966891 15.8966498,45.6930271 L16.0932889,45.6978641 L32.9067111,45.6978641 C34.9515788,45.6978641 36.6092716,44.1355378 36.6092716,42.2083107 L36.6092716,42.2083107 L36.609,41 Z M36.609,8 L12.39,8 L12.39,39 L36.609,39 L36.609,8 Z M32.9067111,2.30213592 L16.0932889,2.30213592 C14.0484212,2.30213592 12.3907284,3.86446219 12.3907284,5.79168932 L12.3907284,5.79168932 L12.39,6 L36.609,6 L36.6092716,5.79168932 C36.6092716,3.92663081 35.0568018,2.40331088 33.1033502,2.30697292 L32.9067111,2.30213592 Z M27.3430657,4 C27.7058805,4 28,4.22385763 28,4.5 C28,4.75313051 27.7528579,4.96232731 27.4322078,4.99543559 L27.3430657,5 L22.6569343,5 C22.2941195,5 22,4.77614237 22,4.5 C22,4.24686949 22.2471421,4.03767269 22.5677922,4.00456441 L22.6569343,4 L27.3430657,4 Z" id="Combined-Shape" fill="#C5C5CA" fill-rule="nonzero"></path>
        <path d="M24,13 L43,13 C44.1045695,13 45,13.8954305 45,15 L45,30 C45,31.1045695 44.1045695,32 43,32 L33.8058007,32 L33.8058007,32 L30.6971222,35 L27.6161175,32 L24,32 C22.8954305,32 22,31.1045695 22,30 L22,15 C22,13.8954305 22.8954305,13 24,13 Z" id="Rectangle" stroke="#767680" stroke-width="2" fill="#767680"></path>
        <path d="M31.5072088,27.2996882 C31.6485588,28.2752336 32.497996,29 33.5,29 C34.502004,29 35.3514412,28.2752336 35.4927912,27.2996882 L38.102878,27.2996882 C39.083294,27.2440783 39.8798034,26.5008376 39.9877055,25.5409135 C40.0956077,24.5809894 39.4834036,23.684604 38.5390108,23.4197437 L38.5390108,21.7371146 C38.540445,19.6494783 37.2249528,17.7799346 35.2378213,17.045549 L35.2378213,16.7090232 C35.2378213,15.7651558 34.4597722,15 33.5,15 C32.5402278,15 31.7621787,15.7651558 31.7621787,16.7090232 L31.7621787,17.045549 C29.7750472,17.7799346 28.459555,19.6494783 28.4609892,21.7371146 L28.4609892,23.4197437 C27.5165964,23.684604 26.9043923,24.5809894 27.0122945,25.5409135 C27.1201966,26.5008376 27.916706,27.2440783 28.897122,27.2996882 L31.5072088,27.2996882 Z" id="Path" fill="#FFFFFF" fill-rule="nonzero"></path>
    </g>
</svg>