<?xml version="1.0" encoding="UTF-8"?>
<svg width="24px" height="24px" fill="#000000" viewBox="0 0 24 24" version="1.1" xmlns="http://www.w3.org/2000/svg" xmlns:xlink="http://www.w3.org/1999/xlink">
    <desc>Created with Sketch.</desc>
    <g id="icon/viewer" stroke="none" stroke-width="1" fill="inherit" fill-rule="evenodd">
        <path d="M12,20.5 C15.7953493,20.5 19.9596573,17.3425363 23.3204155,12.7103687 C23.5598615,12.2891093 23.5598615,11.7108907 23.3502423,11.3359618 C19.9596573,6.65746369 15.7953493,3.5 12,3.5 C8.22692587,3.5 3.80125694,6.77016914 0.679584536,11.2896313 C0.440138488,11.7108907 0.440138488,12.2891093 0.649757708,12.6640382 C4.0403427,17.3425363 8.20465067,20.5 12,20.5 Z M12,6.32978723 C14.744379,6.32978723 16.9081633,8.86762995 16.9081633,12 C16.9081633,15.13237 14.744379,17.6702128 12,17.6702128 C9.255621,17.6702128 7.09183673,15.13237 7.09183673,12 C7.09183673,8.86762995 9.255621,6.32978723 12,6.32978723 Z" id="Shape" fill="inherit" fill-rule="nonzero"></path>
    </g>
</svg>
