<?xml version="1.0" encoding="UTF-8"?>
<svg width="24px" height="24px" fill="#000000" viewBox="0 0 24 24" version="1.1" xmlns="http://www.w3.org/2000/svg" xmlns:xlink="http://www.w3.org/1999/xlink">
    <desc>Created with Sketch.</desc>
    <g id="icon/analyst" stroke="none" stroke-width="1" fill="inherit" fill-rule="evenodd">
        <path d="M1,12 L5,12 C5.55228475,12 6,12.4477153 6,13 L6,23 C6,23.5522847 5.55228475,24 5,24 L1,24 C0.44771525,24 6.76353751e-17,23.5522847 0,23 L0,13 C-6.76353751e-17,12.4477153 0.44771525,12 1,12 Z M10,5.14285714 L14,5.14285714 C14.5522847,5.14285714 15,5.59057239 15,6.14285714 L15,23 C15,23.5522847 14.5522847,24 14,24 L10,24 C9.44771525,24 9,23.5522847 9,23 L9,6.14285714 C9,5.59057239 9.44771525,5.14285714 10,5.14285714 Z M19,0 L23,0 C23.5522847,-1.01453063e-16 24,0.44771525 24,1 L24,23 C24,23.5522847 23.5522847,24 23,24 L19,24 C18.4477153,24 18,23.5522847 18,23 L18,1 C18,0.44771525 18.4477153,1.01453063e-16 19,0 Z" id="Combined-Shape" fill="inherit" fill-rule="nonzero"></path>
    </g>
</svg>