<?xml version="1.0" encoding="UTF-8"?>
<svg width="24px" height="24px" viewBox="0 0 24 24" fill="#000000" version="1.1" xmlns="http://www.w3.org/2000/svg" xmlns:xlink="http://www.w3.org/1999/xlink">
    <desc>Created with Sketch.</desc>
    <g id="icon-admin" stroke="none" stroke-width="1" fill="inherit" fill-rule="evenodd">
        <path d="M2,1 C1.44771525,1 1,1.44771525 1,2 L1,22 C1,22.5522847 1.44771525,23 2,23 L22,23 C22.5522847,23 23,22.5522847 23,22 L23,2 C23,1.44771525 22.5522847,1 22,1 L2,1 Z M2,0 L22,0 C23.1045695,-2.02906125e-16 24,0.8954305 24,2 L24,22 C24,23.1045695 23.1045695,24 22,24 L2,24 C0.8954305,24 1.3527075e-16,23.1045695 0,22 L0,2 C-1.3527075e-16,0.8954305 0.8954305,2.02906125e-16 2,0 Z M14.9327503,18.821116 L14.2548754,16.2414254 L9.78278401,16.2414254 L9.08607925,18.821116 L5,18.821116 L9.49092121,5 L14.4525889,5 L18.9999997,18.821116 L14.9327503,18.821116 Z M13.4828512,13.1909884 L12.8897106,10.9314054 C12.7516243,10.4292733 12.5837264,9.77964969 12.3860119,8.98251503 C12.1882974,8.18538038 12.0580589,7.61421372 11.9952924,7.26899793 C11.9388025,7.58910712 11.8273936,8.11633788 11.6610624,8.85070602 C11.4947311,9.58507417 11.1259834,11.0318205 10.5548082,13.1909884 L13.4828512,13.1909884 Z" id="Combined-Shape" fill="inherit" fill-rule="nonzero"></path>
    </g>
</svg>