<?xml version="1.0" encoding="UTF-8"?>
<svg width="24px" height="24px" viewBox="0 0 24 24" version="1.1" fill="#000000" xmlns="http://www.w3.org/2000/svg" xmlns:xlink="http://www.w3.org/1999/xlink">
    <title>icon-search</title>
    <desc>magnifying glass search tool icon</desc>
    <g stroke="none" stroke-width="1" fill="inherit" fill-rule="evenodd">
        <path d="M9.00009303,18.0001861 C11.1311151,18.0001861 13.0891353,17.2511783 14.6331513,16.0081655 L22.2912304,23.705245 C22.6802344,24.0972491 23.312241,24.0982491 23.705245,23.7082451 C24.0972491,23.318241 24.0982491,22.6852345 23.7092451,22.2942304 L16.0411658,14.5881508 C17.2641785,13.0521349 18.0001861,11.1111149 18.0001861,9.00009303 C18.0001861,4.03704173 13.9631443,0 9.00009303,0 C4.03704173,0 0,4.03704173 0,9.00009303 C0,13.9621443 4.03704173,18.0001861 9.00009303,18.0001861 Z M9.00009303,2.00002067 C12.8591329,2.00002067 16.0001654,5.14005313 16.0001654,9.00009303 C16.0001654,12.8591329 12.8591329,16.0001654 9.00009303,16.0001654 C5.14005313,16.0001654 2.00002067,12.8591329 2.00002067,9.00009303 C2.00002067,5.14005313 5.14005313,2.00002067 9.00009303,2.00002067 Z" id="path-1"></path>
    </g>
</svg>
