<?xml version="1.0" encoding="UTF-8"?>
<svg width="10px" height="21px" viewBox="0 0 10 21" version="1.1" xmlns="http://www.w3.org/2000/svg" xmlns:xlink="http://www.w3.org/1999/xlink">
    <!-- Generator: Sketch 40.3 (33839) - http://www.bohemiancoding.com/sketch -->
    <desc>Created with Sketch.</desc>
    <defs></defs>
    <g id="Symbols" stroke="none" stroke-width="1" fill="none" fill-rule="evenodd">
        <g id="Input-/-Select" transform="translate(-321.000000, -10.000000)" fill="#525252">
            <g id="Arrows" transform="translate(321.000000, 10.000000)">
                <path d="M9.57412966,13.102 C9.53892966,13.0392 9.47212966,13 9.39972966,13 L0.199729663,13 C0.127729663,13 0.0609296632,13.0392 0.0257296632,13.102 C-0.00987033683,13.1648 -0.00827033683,13.242 0.0289296632,13.3036 L4.62892966,20.9036 C4.66492966,20.9632 4.73012966,21 4.79972966,21 C4.86932966,21 4.93452966,20.9632 4.97092966,20.9036 L9.57092966,13.3036 C9.60812966,13.242 9.60972966,13.1648 9.57412966,13.102 L9.57412966,13.102 Z" id="Shape"></path>
                <path d="M9.57412966,0.102 C9.53892966,0.0392 9.47212966,0 9.39972966,0 L0.199729663,0 C0.127729663,0 0.0609296632,0.0392 0.0257296632,0.102 C-0.00987033683,0.1648 -0.00827033683,0.242 0.0289296632,0.3036 L4.62892966,7.9036 C4.66492966,7.9632 4.73012966,8 4.79972966,8 C4.86932966,8 4.93452966,7.9632 4.97092966,7.9036 L9.57092966,0.3036 C9.60812966,0.242 9.60972966,0.1648 9.57412966,0.102 L9.57412966,0.102 Z" id="Shape" transform="translate(4.799930, 4.000000) rotate(-180.000000) translate(-4.799930, -4.000000) "></path>
            </g>
        </g>
    </g>
</svg>