<svg viewBox="0 0 24 24" xmlns="http://www.w3.org/2000/svg">
<path d="M12 0C5.37183 0 0 5.37183 0 12C0 18.6282 5.37183 24 12 24C18.6282 24 24 18.6282 24 12C24 5.37183 18.6282 0 12 0ZM16.7958 16.0581C16.9993 16.2616 16.9993 16.5923 16.7958 16.7958C16.5923 16.9993 16.2616 16.9993 16.0581 16.7958L12 12.7377L7.94191 16.7958C7.73843 16.9993 7.40765 16.9993 7.20417 16.7958C7.0007 16.5923 7.0007 16.2616 7.20417 16.0581L11.2623 12L7.20417 7.94191C7.0007 7.73843 7.0007 7.40765 7.20417 7.20417C7.40765 7.0007 7.73843 7.0007 7.94191 7.20417L12 11.2623L16.0581 7.20417C16.2616 7.0007 16.5923 7.0007 16.7958 7.20417C16.9993 7.40765 16.9993 7.73843 16.7958 7.94191L12.7377 12L16.7958 16.0581Z"/></svg>