<svg xmlns="http://www.w3.org/2000/svg" viewBox="0 0 24 24"><path d="M23.6299225,21.8408983 C24.1233592,22.334335 24.1233592,23.1364858 23.6299225,23.6299225 C23.1364858,24.1233592 22.334335,24.1233592 21.8408983,23.6299225 L12,13.7890242 L2.15910169,23.6299225 C1.66566503,24.1233592 0.863514155,24.1233592 0.370077495,23.6299225 C-0.123359165,23.1364858 -0.123359165,22.334335 0.370077495,21.8408983 L10.2109758,12 L0.370077495,2.15910169 C-0.123359165,1.66566503 -0.123359165,0.863514155 0.370077495,0.370077495 C0.863514155,-0.123359165 1.66566503,-0.123359165 2.15910169,0.370077495 L12,10.2109758 L21.8408983,0.370077495 C22.334335,-0.123359165 23.1364858,-0.123359165 23.6299225,0.370077495 C24.1233592,0.863514155 24.1233592,1.66566503 23.6299225,2.15910169 L13.7890242,12 L23.6299225,21.8408983 Z"/></svg>