<svg width="24" height="24" viewBox="0 0 24 24" fill="none" xmlns="http://www.w3.org/2000/svg">
<path d="M3.375 3C2.339 3 1.5 3.84 1.5 4.875V5.625C1.5 6.661 2.34 7.5 3.375 7.5H20.625C21.66 7.5 22.5 6.66 22.5 5.625V4.875C22.5 3.839 21.66 3 20.625 3H3.375Z" fill="#45454B"/>
<path fill-rule="evenodd" clip-rule="evenodd" d="M3.08701 9L3.62701 18.176C3.67188 18.9395 4.0067 19.6571 4.56302 20.182C5.11934 20.7069 5.85514 20.9995 6.62001 21H17.377C18.1422 21 18.8785 20.7077 19.4353 20.1827C19.992 19.6578 20.3271 18.9399 20.372 18.176L20.913 9H3.08701ZM9.25001 12.75C9.25001 12.5511 9.32902 12.3603 9.46968 12.2197C9.61033 12.079 9.80109 12 10 12H14C14.1989 12 14.3897 12.079 14.5303 12.2197C14.671 12.3603 14.75 12.5511 14.75 12.75C14.75 12.9489 14.671 13.1397 14.5303 13.2803C14.3897 13.421 14.1989 13.5 14 13.5H10C9.80109 13.5 9.61033 13.421 9.46968 13.2803C9.32902 13.1397 9.25001 12.9489 9.25001 12.75Z" fill="inherit"/>
</svg>
