<?xml version="1.0" encoding="UTF-8"?>
<svg width="48px" height="48px" viewBox="0 0 48 48" version="1.1" xmlns="http://www.w3.org/2000/svg" xmlns:xlink="http://www.w3.org/1999/xlink" style="background: #FFFFFF;">
    <!-- Generator: Sketch 63.1 (92452) - https://sketch.com -->
    <title>Icon/Display</title>
    <desc>Created with Sketch.</desc>
    <g id="Icon/Display" stroke="none" stroke-width="1" fill="none" fill-rule="evenodd">
        <rect fill="#FFFFFF" x="0" y="0" width="48" height="48"></rect>
        <g id="Web-Experience-" transform="translate(0.000000, 1.000000)" fill="#C5C5CA" fill-rule="nonzero">
            <path d="M15.1885714,2.94857143 C14.5210959,2.94857143 13.98,3.48966729 13.98,4.15714286 C13.98,4.82461843 14.5210959,5.36571429 15.1885714,5.36571429 C15.856047,5.36571429 16.3971429,4.82461843 16.3971429,4.15714286 C16.3971429,3.48966729 15.856047,2.94857143 15.1885714,2.94857143 Z" id="Oval"></path>
            <path d="M9.92571429,2.94857143 C9.25823872,2.94857143 8.71714286,3.48966729 8.71714286,4.15714286 C8.71714286,4.82461843 9.25823872,5.36571429 9.92571429,5.36571429 C10.5931899,5.36571429 11.1342857,4.82461843 11.1342857,4.15714286 C11.1342857,3.48966729 10.5931899,2.94857143 9.92571429,2.94857143 Z" id="Oval"></path>
            <path d="M4.65428571,2.94857143 C3.98681015,2.94857143 3.44571429,3.48966729 3.44571429,4.15714286 C3.44571429,4.82461843 3.98681015,5.36571429 4.65428571,5.36571429 C5.32176128,5.36571429 5.86285714,4.82461843 5.86285714,4.15714286 C5.86285714,3.48966729 5.32176128,2.94857143 4.65428571,2.94857143 Z" id="Oval"></path>
            <path d="M47.6828571,7.50857143 C48.0378973,7.50857143 48.3257143,7.79638838 48.3257143,8.15142857 C48.3257143,8.47419239 48.087849,8.7413998 47.7778539,8.78731549 L47.6828571,8.79428571 L1.27714286,8.79428571 C0.922102661,8.79428571 0.634285714,8.50646877 0.634285714,8.15142857 C0.634285714,7.82866476 0.872150959,7.56145735 1.18214614,7.51554165 L1.27714286,7.50857143 L47.6828571,7.50857143 Z" id="Path"></path>
            <path d="M44.0142857,3.51428571 C44.3693259,3.51428571 44.6571429,3.80210266 44.6571429,4.15714286 C44.6571429,4.47990667 44.4192776,4.74711408 44.1092824,4.79302978 L44.0142857,4.8 L24.9771429,4.8 C24.6221027,4.8 24.3342857,4.51218305 24.3342857,4.15714286 C24.3342857,3.83437904 24.572151,3.56717163 24.8821461,3.52125594 L24.9771429,3.51428571 L44.0142857,3.51428571 Z" id="Path"></path>
            <path d="M45.2914286,0 L3.03428571,0 C1.35849599,0 0,1.35849599 0,3.03428571 L0,43.0285714 C0,44.7043612 1.35849599,46.0628571 3.03428571,46.0628571 L45.2914286,46.0628571 C46.9672183,46.0628571 48.3257143,44.7043612 48.3257143,43.0285714 L48.3257143,3.03428571 C48.3257143,1.35849599 46.9672183,0 45.2914286,0 Z M3.03428571,1.28571429 L45.2914286,1.28571429 C46.2571379,1.28571429 47.04,2.06857638 47.04,3.03428571 L47.04,43.0285714 C47.04,43.9942808 46.2571379,44.7771429 45.2914286,44.7771429 L3.03428571,44.7771429 C2.06857638,44.7771429 1.28571429,43.9942808 1.28571429,43.0285714 L1.28571429,3.03428571 C1.28571429,2.06857638 2.06857638,1.28571429 3.03428571,1.28571429 Z" id="Rectangle"></path>
        </g>
        <rect id="Rectangle" stroke="#767680" fill="#767680" x="6" y="14" width="37" height="8" rx="2"></rect>
        <rect id="Rectangle-Copy" stroke="#767680" fill="#767680" x="35" y="27" width="8" height="15" rx="2"></rect>
        <line x1="8" y1="28" x2="29" y2="28" id="Line-Copy-2" stroke="#C5C5CA" stroke-width="3" stroke-linecap="round"></line>
        <line x1="8" y1="34" x2="29" y2="34" id="Line-Copy-3" stroke="#C5C5CA" stroke-width="3" stroke-linecap="round"></line>
        <line x1="8" y1="40" x2="29" y2="40" id="Line-Copy-4" stroke="#C5C5CA" stroke-width="3" stroke-linecap="round"></line>
    </g>
</svg>