<?xml version="1.0" encoding="UTF-8"?>
<svg width="48px" height="48px" viewBox="0 0 48 48" version="1.1" xmlns="http://www.w3.org/2000/svg" xmlns:xlink="http://www.w3.org/1999/xlink" style="background: #FFFFFF;">
    <!-- Generator: Sketch 63.1 (92452) - https://sketch.com -->
    <title>Icon/In-App</title>
    <desc>Created with Sketch.</desc>
    <g id="Icon/In-App" stroke="none" stroke-width="1" fill="none" fill-rule="evenodd">
        <rect fill="#FFFFFF" x="0" y="0" width="48" height="48"></rect>
        <path d="M32.9067111,0 C35.7380664,0 39,3.12322099 39,5.79168932 L39,5.79168932 L39,42.2083107 C39,44.876779 35.7380664,48 32.9067111,48 L32.9067111,48 L16.0932889,48 C13.2619336,48 10,44.876779 10,42.2083107 L10,42.2083107 L10,5.79168932 C10,3.12322099 13.2619336,0 16.0932889,0 L16.0932889,0 Z M36.609,41 L12.39,41 L12.3907284,42.2083107 C12.3907284,44.0733692 13.9431982,45.5966891 15.8966498,45.6930271 L16.0932889,45.6978641 L32.9067111,45.6978641 C34.9515788,45.6978641 36.6092716,44.1355378 36.6092716,42.2083107 L36.6092716,42.2083107 L36.609,41 Z M36.609,8 L12.39,8 L12.39,39 L36.609,39 L36.609,8 Z M32.9067111,2.30213592 L16.0932889,2.30213592 C14.0484212,2.30213592 12.3907284,3.86446219 12.3907284,5.79168932 L12.3907284,5.79168932 L12.39,6 L36.609,6 L36.6092716,5.79168932 C36.6092716,3.92663081 35.0568018,2.40331088 33.1033502,2.30697292 L32.9067111,2.30213592 Z M27.3430657,4 C27.7058805,4 28,4.22385763 28,4.5 C28,4.75313051 27.7528579,4.96232731 27.4322078,4.99543559 L27.3430657,5 L22.6569343,5 C22.2941195,5 22,4.77614237 22,4.5 C22,4.24686949 22.2471421,4.03767269 22.5677922,4.00456441 L22.6569343,4 L27.3430657,4 Z" id="Combined-Shape" fill="#C5C5CA" fill-rule="nonzero"></path>
        <circle id="Oval" stroke="#767680" stroke-width="2" fill="#767680" cx="33.5" cy="22.5" r="10.5"></circle>
        <path d="M38.8181818,18 C39.4708033,18 40,18.5370908 40,19.2 L40,19.2 L40,25.8 C40,26.4624854 39.4706296,27 38.8181818,27 L38.8181818,27 L28.1818182,27 C27.5293704,27 27,26.4624854 27,25.8 L27,25.8 L27,19.2 C27,18.5370908 27.5291967,18 28.1818182,18 L28.1818182,18 Z M27.7127175,18.8350535 C27.6363191,18.9361529 27.5909091,19.062674 27.5909091,19.2 L27.5909091,19.2 L27.5909091,25.8 C27.5909091,26.1311146 27.8557205,26.4 28.1818182,26.4 L28.1818182,26.4 L38.8181818,26.4 C39.1442795,26.4 39.4090909,26.1311146 39.4090909,25.8 L39.4090909,25.8 L39.4090909,19.2 C39.4090909,19.1240688 39.3952078,19.0514409 39.3698794,18.9845872 L33.8166895,23.3914624 C33.7258508,23.4635573 33.6022372,23.4738566 33.5020343,23.4223602 L33.4541439,23.3914624 Z M38.8181818,18.6 L28.346,18.599 L33.6354167,22.7976074 L38.914026,18.6078501 L38.914026,18.6078501 L38.8181818,18.6 Z" id="Combined-Shape" stroke="#FFFFFF" fill="#FFFFFF" fill-rule="nonzero"></path>
    </g>
</svg>