<svg fill="none" height="169" viewBox="0 0 287 169" width="287" xmlns="http://www.w3.org/2000/svg" xmlns:xlink="http://www.w3.org/1999/xlink"><clipPath id="a"><path d="m0 0h286.67v168.73h-286.67z"/></clipPath><g clip-path="url(#a)"><path d="m170.57 152.22h-7.81v3.01h7.81z" fill="#fff31d"/><path d="m22.14 42.67h-22.14v4.22h22.14z" fill="#f4459d"/><path d="m31.1 106.47h-20.82v5.22h20.82z" fill="#37f2f7"/><path d="m286.67 37.07h-17.47v5.42h17.47z" fill="#ff7bc3"/><path d="m261.85 143.98h-15.34v3.01h15.34z" fill="#fff31d"/><path d="m279.63 6.84h-14.3v14.3h14.3z" fill="#37f2f7"/><g fill="#ff7bc3"><path d="m281.32 115.03h-10.88v10.88h10.88z"/><path d="m57.26 9.85999h-36.46v4.13001h36.46z"/><path d="m209.73 13.94h28.35v-4.08001h-28.35v2.23001h-51.12v-2.23001h-67.51v4.08001h71.78z"/><path d="m49.59 115.01h-10.71v3.45h10.71z"/><path d="m212.18 146.98h-162.56l-.03-11.69h-8.27l.03 11.69v5.12h169.81 1.02 18.41v-3.97h-18.41z"/></g><path d="m53.97 152.1.02 2.98v6.83 6.82h13.66v-6.82h95.11l-.03-9.81z" fill="#e21c79"/><path d="m270.43 84.33h9.2v-5.46h-18.2v-20.42h3v-10.39h4.75v-11h-12.18v-4.29h11.41v-7.26h-11.41v-11.57h-165.9v-9.45001h-33.84v9.51001h-27v20.56h-8.12v12.32h-14.54002v11.57h14.54002v14.7h-7.5v14.61h16.47v23.93h-5.26v3.31h23.73v3.44h-23v16.84h23v11.72h162.6v1.14h34.33v-12.85h11v-16.84h-23.71v-3.45h36.63v-11.43h5.9v-3.89h-5.9zm-226.68-59.92h-9.31v-1.89h9.31zm198.62 22.48h-8.57v-4.39h8.57z" fill="#e21c79"/><path d="m273.48 50.42h-6.05v6.05h6.05z" fill="#e21c79"/><path d="m202.68 0h-44.07v12.09h44.07z" fill="#e21c79"/><path d="m152.97 19.41h-150.11001v3.11h150.11001z" fill="#fff31d"/><path d="m242.4 19.41h-19.97v3.2h19.97z" fill="#fff31d"/><path d="m265.08 101.48h-5.77v5.77h5.77z" fill="#fff31d"/><path d="m53.49 48.71h-21.64v2.77h21.64z" fill="#ff8dcc"/><path d="m223.83 119.18c-6.22-11.72-12-22.54-18.25-34.25l-7-13.19 21.24-23.45c4.34-4.8 4.65-8.43 1.05-11.58-3.43-3-6.8-2.37-11 2.22-8.93 9.82-17.16 18.92-26.07 28.76l-4.41 4.86c0-9.39 0-18.82 0-28.39 0-6.47-2.22-9.37-7-9.29-4.57.07-6.63 2.81-6.64 9v38.82 39.25c0 6.52 2.24 9.47 6.94 9.35s6.71-3.1 6.71-9.64c0-9.7 0-19.26 0-28.79l9.42-10.39c7.59 14.24 15.13 28.39 22.86 42.87 3.05 5.72 6.37 7.23 10.55 4.91 3.98-2.19 4.51-5.58 1.6-11.07z" fill="#fff"/><path d="m146.75 72.46v-.78c0-8.78 0-17.73 0-27.35 0-6.54-2.15-9.48-6.85-9.54s-7 2.77-7 9.35v45c0 1.89-.08 5.79-.09 7.81-1.78-2.93-3-4.89-3.78-6.31-6-10.6-11.93-20.79-17.89-31.1-3.29-5.68-6.57-11.41-9.85-17.26-2.22-4-4.28-8.69-9.88-7.3-6 1.49-5.24 7-5.26 11.58v27.88 19 21.78 6.39.32 1.08c0 5.44 2.61 8.5 7 8.15h.17c4.58-.06 6.66-2.9 6.68-9.34 0-15.35 0-29.69 0-45 0-.45 0-6.81 0-10.2.7 1 1.94 3.41 2.34 4.13 6.34 11.41 11.93 21.63 17.77 32.1 2.59 4.63 5.22 9.31 8 14.15.52.92 3 5.74 3.49 6.66 2.21 4 4.27 8.7 9.87 7.31 6-1.49 5.25-7 5.26-11.58 0-1 0-1.93 0-2.89 0-1.19 0-1.74 0-.59z" fill="#fff"/><path d="m53.5 82.67c0-13.27 0-25.54 0-38.81 0-6.22 2.07-9 6.64-9 4.78-.08 7 2.82 7 9.29v77.51c0 6.54-2.1 9.52-6.71 9.64s-6.93-2.83-6.94-9.35c-.0133-13.1-.01-26.1933.01-39.28z" fill="#fff"/></g></svg>