<?xml version="1.0" encoding="UTF-8"?>
<svg width="18px" height="18px" viewBox="0 0 18 18" version="1.1" xmlns="http://www.w3.org/2000/svg" xmlns:xlink="http://www.w3.org/1999/xlink">
    <!-- Generator: Sketch 40.3 (33839) - http://www.bohemiancoding.com/sketch -->
    <desc>Created with Sketch.</desc>
    <defs></defs>
    <g id="Live-Content-Editor" stroke="none" stroke-width="1" fill="none" fill-rule="evenodd">
        <g id="--Add-Target" transform="translate(-933.000000, -300.000000)">
            <g id="Rules-Configuration" transform="translate(440.000000, 241.000000)">
                <g id="Group" transform="translate(310.000000, 49.000000)">
                    <g id="Calendar-icon" transform="translate(184.000000, 11.000000)">
                        <polyline id="Shape" stroke="#525252" points="3 1.66666667 0.333333333 1.66666667 0.333333333 15.6666667 15.6666667 15.6666667 15.6666667 1.66666667 13 1.66666667"></polyline>
                        <rect id="Rectangle-path" stroke="#525252" x="3" y="0.333333333" width="2" height="2.66666667"></rect>
                        <rect id="Rectangle-path" stroke="#525252" x="11" y="0.333333333" width="2" height="2.66666667"></rect>
                        <path d="M5,1.66666667 L11,1.66666667" id="Shape" stroke="#525252"></path>
                        <path d="M0.333333333,5 L15.6666667,5" id="Shape" stroke="#525252"></path>
                        <path d="M15.6666667,1.33333333 L13.3333333,1.33333333 L13.3333333,0.333333333 C13.3333333,0.149333333 13.184,0 13,0 L11,0 C10.8166667,0 10.6666667,0.149333333 10.6666667,0.333333333 L10.6666667,1.33333333 L5.33333333,1.33333333 L5.33333333,0.333333333 C5.33333333,0.149333333 5.184,0 5,0 L3,0 C2.81666667,0 2.66666667,0.149333333 2.66666667,0.333333333 L2.66666667,1.33333333 L0.333333333,1.33333333 C0.15,1.33333333 0,1.48266667 0,1.66666667 L0,4.66666667 L16,4.66666667 L16,1.66666667 C16,1.48266667 15.8506667,1.33333333 15.6666667,1.33333333 L15.6666667,1.33333333 Z M4.66666667,2.66666667 L3.33333333,2.66666667 L3.33333333,0.666666667 L4.66666667,0.666666667 L4.66666667,2.66666667 L4.66666667,2.66666667 Z M12.6666667,2.66666667 L11.3333333,2.66666667 L11.3333333,0.666666667 L12.6666667,0.666666667 L12.6666667,2.66666667 L12.6666667,2.66666667 Z" id="Shape" fill="#525252"></path>
                    </g>
                </g>
            </g>
        </g>
    </g>
</svg>