<?xml version="1.0" encoding="UTF-8"?>
<svg width="24px" height="24px" viewBox="0 0 24 24" fill="#000000" version="1.1" xmlns="http://www.w3.org/2000/svg" xmlns:xlink="http://www.w3.org/1999/xlink">
    <title>fallback content icon</title>
    <desc>fallback content icon</desc>
    <g id="icon-fallback-export" stroke="none" stroke-width="1" fill="inherit" fill-rule="evenodd">
        <path d="M22.572824,4.5319425 C22.8018326,4.59194174 22.9597335,4.78993922 22.9597335,5.01593636 C22.9597335,13.5848276 22.1639546,20.4207409 12.1618189,23.9636959 C12.0426089,24.0066954 11.9087591,24.0046954 11.7979147,23.9636959 C1.79577892,20.4207409 1,13.5848276 1,5.01593636 C1,4.78993922 1.15790094,4.59194174 1.38690959,4.5319425 C1.46324581,4.51294274 9.12405571,2.51496809 11.5992314,0.140998211 C11.7979147,-0.0469994036 12.1607731,-0.0469994036 12.357365,0.140998211 C14.8367235,2.51696806 22.4964877,4.51294274 22.572824,4.5319425 Z M18.3333333,10.7368421 L11.6666667,10.7368421 L13.0361905,4 L5,14.1052632 L11.6666667,14.1052632 L10.02,20 L18.3333333,10.7368421 Z"></path>
    </g>
</svg>