<?xml version="1.0" encoding="UTF-8"?>
<svg width="20px" height="19px" viewBox="0 0 20 19" version="1.1" xmlns="http://www.w3.org/2000/svg" xmlns:xlink="http://www.w3.org/1999/xlink">
    <!-- Generator: Sketch 42 (36781) - http://www.bohemiancoding.com/sketch -->
    <title>Feedback Icon</title>
    <desc>Created with Sketch.</desc>
    <defs></defs>
    <g id="UI" stroke="none" stroke-width="1" fill="none" fill-rule="evenodd">
        <g id="Studio-App" transform="translate(-1394.000000, -979.000000)">
            <g id="Feedback" transform="translate(1384.000000, 968.000000)">
                <g id="Feedback-Icon" transform="translate(10.000000, 10.000000)">
                    <g id="Group">
                        <g id="Filled_Icons_1_" transform="translate(0.000000, 1.666667)" fill-rule="nonzero" fill="#FFFFFF">
                            <g id="Filled_Icons">
                                <path d="M19.5833333,0 L0.416666667,0 C0.186666667,0 0,0.186666667 0,0.416666667 L0,13.75 C0,13.98 0.186666667,14.1666667 0.416666667,14.1666667 L5.83333333,14.1666667 L5.83333333,17.0833333 C5.83333333,17.4533333 6.28333333,17.64 6.54416667,17.3783333 L9.75583333,14.1666667 L19.5833333,14.1666667 C19.8133333,14.1666667 20,13.98 20,13.75 L20,0.416666667 C20,0.186666667 19.8133333,0 19.5833333,0 Z M9.58333333,4.16666667 L15.4166667,4.16666667 C15.6466667,4.16666667 15.8333333,4.35333333 15.8333333,4.58333333 C15.8333333,4.81333333 15.6466667,5 15.4166667,5 L9.58333333,5 C9.35333333,5 9.16666667,4.81333333 9.16666667,4.58333333 C9.16666667,4.35333333 9.35333333,4.16666667 9.58333333,4.16666667 Z M15.4166667,10 L4.58333333,10 C4.35333333,10 4.16666667,9.81333333 4.16666667,9.58333333 C4.16666667,9.35333333 4.35333333,9.16666667 4.58333333,9.16666667 L15.4166667,9.16666667 C15.6466667,9.16666667 15.8333333,9.35333333 15.8333333,9.58333333 C15.8333333,9.81333333 15.6466667,10 15.4166667,10 Z M15.4166667,7.5 L4.58333333,7.5 C4.35333333,7.5 4.16666667,7.31333333 4.16666667,7.08333333 C4.16666667,6.85333333 4.35333333,6.66666667 4.58333333,6.66666667 L15.4166667,6.66666667 C15.6466667,6.66666667 15.8333333,6.85333333 15.8333333,7.08333333 C15.8333333,7.31333333 15.6466667,7.5 15.4166667,7.5 Z" id="Shape" transform="translate(10.000000, 8.750248) scale(-1, 1) translate(-10.000000, -8.750248) "></path>
                            </g>
                        </g>
                        <g id="Invisible_Shape">
                            <rect id="Rectangle-path" x="0" y="0" width="20" height="20"></rect>
                        </g>
                    </g>
                </g>
            </g>
        </g>
    </g>
</svg>