<svg fill="#b4b3b4" height="24" viewBox="0 0 24 24" width="24" xmlns="http://www.w3.org/2000/svg"><path d="m14 3.22301642c.8319925.18878913 1.6202064.4928425 2.3469656.89448411l2.3705488-2.37054886 3.5355339 3.53553391-2.3705488 2.37054885c.4016416.72675916.7056949 1.51497302.8944841 2.34696557h3.2230164v4h-3.2230164c-.1887892.8319925-.4928425 1.6202064-.8944841 2.3469656l2.3705488 2.3705488-3.5355339 3.5355339-2.3705488-2.3705488c-.7267592.4016416-1.5149731.7056949-2.3469656.8944841v3.2230164h-4v-3.2230164c-.83199255-.1887892-1.62020641-.4928425-2.34696557-.8944841l-2.37054885 2.3705488-3.53553391-3.5355339 2.37054886-2.3705488c-.40164161-.7267592-.70569498-1.5149731-.89448411-2.3469656h-3.22301642v-4h3.22301642c.18878913-.83199255.4928425-1.62020641.89448411-2.34696557l-2.37054886-2.37054885 3.53553391-3.53553391 2.37054885 2.37054886c.72675916-.40164161 1.51497302-.70569498 2.34696557-.89448411v-3.22301642h4zm-2 12.77698358c2.209139 0 4-1.790861 4-4s-1.790861-4-4-4-4 1.790861-4 4 1.790861 4 4 4z" fill="#b4b3b4" fill-rule="evenodd"/></svg>