<?xml version="1.0" encoding="UTF-8"?>
<svg width="24px" height="24px" viewBox="0 0 24 24" fill="#000000" version="1.1" xmlns="http://www.w3.org/2000/svg" xmlns:xlink="http://www.w3.org/1999/xlink">
    <title>icon-help</title>
    <g stroke="none" stroke-width="1" fill="inherit" fill-rule="evenodd">
        <g>
            <path d="M12,24 C5.372583,24 0,18.627417 0,12 C0,5.372583 5.372583,0 12,0 C18.627417,0 24,5.372583 24,12 C24,18.627417 18.627417,24 12,24 Z M10.4404297,17.840332 C10.4404297,18.2918317 10.5579415,18.642821 10.7929688,18.8933105 C11.027996,19.1438001 11.3650694,19.269043 11.8041992,19.269043 C12.243329,19.269043 12.5819487,19.1407077 12.8200684,18.8840332 C13.058188,18.6273587 13.1772461,18.2794618 13.1772461,17.840332 C13.1772461,17.3950173 13.0597342,17.0502128 12.824707,16.8059082 C12.5896798,16.5616036 12.2495139,16.4394531 11.8041992,16.4394531 C10.895015,16.4394531 10.4404297,16.9064081 10.4404297,17.840332 Z M10.8208008,14.8808594 L12.6391602,14.8808594 L12.6391602,14.4633789 C12.6391602,13.9623998 12.7365713,13.563478 12.9313965,13.2666016 C13.1262217,12.9697251 13.5112276,12.5955426 14.0864258,12.144043 C14.7605828,11.6183242 15.2352688,11.1915706 15.510498,10.8637695 C15.7857273,10.5359684 15.991373,10.1911639 16.1274414,9.8293457 C16.2635098,9.46752749 16.331543,9.05468982 16.331543,8.59082031 C16.331543,7.54556769 15.975915,6.72607719 15.2646484,6.13232422 C14.5533819,5.53857125 13.5916402,5.24169922 12.3793945,5.24169922 C10.9444915,5.24169922 9.59929013,5.59114234 8.34375,6.29003906 L9.12304688,7.92285156 C9.59928624,7.68782435 10.0878881,7.48681724 10.5888672,7.31982422 C11.0898463,7.1528312 11.6341116,7.06933594 12.2216797,7.06933594 C12.871097,7.06933594 13.3689761,7.2084947 13.715332,7.48681641 C14.0616879,7.76513811 14.2348633,8.1640599 14.2348633,8.68359375 C14.2348633,9.12890848 14.1281749,9.51236818 13.9147949,9.83398438 C13.7014149,10.1556006 13.2267289,10.6070934 12.4907227,11.1884766 C11.87223,11.6709008 11.4392916,12.1378558 11.1918945,12.5893555 C10.9444975,13.0408551 10.8208008,13.6067674 10.8208008,14.2871094 L10.8208008,14.8808594 Z"></path>
        </g>
    </g>
</svg>
