<?xml version="1.0" encoding="UTF-8"?>
<svg width="24px" height="24px" viewBox="0 0 24 24" fill="#000000" version="1.1" xmlns="http://www.w3.org/2000/svg" xmlns:xlink="http://www.w3.org/1999/xlink">
    <title>Icon-Nested</title>
    <desc>Created with Sketch.</desc>
    <defs></defs>
    <g id="Icon-Nested" stroke="none" stroke-width="1" fill="none" fill-rule="evenodd">
        <path fill="currentColor" d="M14.2763194,13.5840708 L8.50485437,13.5840708 C8.226031,13.5840708 8,13.3780425 8,13.1238938 L8,7.46017699 C8,7.20602826 8.226031,7 8.50485437,7 C8.78367774,7 9.00970874,7.20602826 9.00970874,7.46017699 L9.00970874,12.6637168 L14.2763194,12.6637168 L13.5847616,12.0333589 C13.3876037,11.8536486 13.3876037,11.5622806 13.5847616,11.3825703 C13.7819195,11.20286 14.1015756,11.20286 14.2987335,11.3825703 L15.8521316,12.7984995 C16.0492895,12.9782098 16.0492895,13.2695778 15.8521316,13.4492881 L14.2987335,14.8652173 C14.1015756,15.0449276 13.7819195,15.0449276 13.5847616,14.8652173 C13.3876037,14.685507 13.3876037,14.394139 13.5847616,14.2144287 L14.2763194,13.5840708 Z"></path>
    </g>
</svg>
