<?xml version="1.0" encoding="UTF-8"?>
<svg width="24px" height="24px" fill="#000000" viewBox="0 0 24 24" version="1.1" xmlns="http://www.w3.org/2000/svg" xmlns:xlink="http://www.w3.org/1999/xlink">
    <title>icon-editor</title>
    <desc>Created with Sketch.</desc>
    <g id="icon/editor" stroke="none" stroke-width="1" fill="inherit" fill-rule="evenodd">
        <path d="M0.685679106,23.982925 C0.498716835,24.0274062 0.302032721,23.9723282 0.165361629,23.837219 C0.0286905361,23.7021099 -0.028644489,23.5060718 0.0136848355,23.3186107 L1.24631433,17.7506581 L6.12595272,22.6552563 L0.685679106,23.982925 Z M7.44786145,21.3285476 L2.56822305,16.4229895 L14.9233177,4.00453534 L19.8058361,8.91009351 L7.44786145,21.3285476 Z M23.5104445,5.19108522 L21.0778252,7.63522438 L16.1953069,2.72966621 L18.2804091,0.634004075 C18.6844909,0.228153654 19.2336061,-5.77315973e-14 19.8063161,-5.77315973e-14 C20.379026,-5.77315973e-14 20.9281412,0.228153654 21.3322231,0.634004075 L23.5104445,2.82182542 C24.1631852,3.47670416 24.1631852,4.53620648 23.5104445,5.19108522 Z" id="Shape" fill="inherit" fill-rule="nonzero"></path>
    </g>
</svg>