<?xml version="1.0" encoding="UTF-8"?>
<svg width="24px" height="24px" viewBox="0 0 24 24" fill="#000000" version="1.1" xmlns="http://www.w3.org/2000/svg" xmlns:xlink="http://www.w3.org/1999/xlink">
    <!-- Generator: Sketch 57.1 (83088) - https://sketch.com -->
    <title>icon-operator</title>
    <g id="icon-operator" stroke="none" stroke-width="1" fill="inherit" fill-rule="evenodd">
        <path d="M21.6,0 C22.9254834,0 24,1.0745166 24,2.4 L24,21.6 C24,22.9254834 22.9254834,24 21.6,24 L2.4,24 C1.0745166,24 0,22.9254834 0,21.6 L0,2.4 C0,1.0745166 1.0745166,0 2.4,0 L21.6,0 Z M21.5652174,1 L2.43478261,1 C1.64237405,1 1,1.64237405 1,2.43478261 L1,21.5652174 C1,22.3576259 1.64237405,23 2.43478261,23 L21.5652174,23 C22.3576259,23 23,22.3576259 23,21.5652174 L23,2.43478261 C23,1.64237405 22.3576259,1 21.5652174,1 Z M12.0201149,4 C14.2797048,4 16.0078963,4.68747928 17.2047414,6.06245847 C18.4015864,7.43743766 19,9.41482652 19,11.9946844 C19,14.5674547 18.3965578,16.5448436 17.1896552,17.9269103 C15.9827526,19.308977 14.2528848,20 12,20 C9.74711517,20 8.01724741,19.308977 6.81034483,17.9269103 C5.60344224,16.5448436 5,14.5603673 5,11.9734219 C5,9.38647654 5.60511847,7.41085953 6.81537356,6.04651163 C8.02562866,4.68216372 9.7605251,4 12.0201149,4 Z M12.0201149,6.74285714 C10.7796873,6.74285714 9.84435181,7.18404874 9.21408046,8.06644518 C8.58380911,8.94884162 8.26867816,10.2582416 8.26867816,11.9946844 C8.26867816,13.7311272 8.58045665,15.0387553 9.20402299,15.917608 C9.82758932,16.7964607 10.7595723,17.2358804 12,17.2358804 C14.4875603,17.2358804 15.7313218,15.4888325 15.7313218,11.9946844 C15.7313218,8.49344872 14.4942652,6.74285714 12.0201149,6.74285714 Z" id="path-1"></path>
    </g>
</svg>
