<?xml version="1.0" encoding="UTF-8" standalone="no"?>
<svg width="23px" height="23px" viewBox="0 0 23 23" version="1.1" xmlns="http://www.w3.org/2000/svg" xmlns:xlink="http://www.w3.org/1999/xlink">
  <g>
    <path d="M10.5,6 L12.5,6 C12.776,6 13,5.776 13,5.5 L13,0.5 C13,0.224 12.776,0 12.5,0 L10.5,0 C10.224,0 10,0.224 10,0.5 L10,5.5 C10,5.776 10.224,6 10.5,6 L10.5,6 Z"></path>
    <path d="M14.681,6.903 L16.096,8.318 C16.291,8.513 16.608,8.513 16.803,8.318 L20.338,4.782 C20.533,4.587 20.533,4.27 20.338,4.075 L18.924,2.66 C18.729,2.465 18.412,2.465 18.217,2.66 L14.681,6.196 C14.485,6.392 14.485,6.708 14.681,6.903 L14.681,6.903 Z"></path>
    <path d="M17,10.5 L17,12.5 C17,12.776 17.224,13 17.5,13 L22.5,13 C22.776,13 23,12.776 23,12.5 L23,10.5 C23,10.224 22.776,10 22.5,10 L17.5,10 C17.224,10 17,10.224 17,10.5 L17,10.5 Z"></path>
    <path d="M16.096,14.682 L14.682,16.096 C14.487,16.291 14.486,16.608 14.682,16.803 L18.217,20.338 C18.412,20.534 18.729,20.533 18.924,20.338 L20.338,18.924 C20.533,18.729 20.533,18.412 20.338,18.217 L16.803,14.682 C16.607,14.486 16.291,14.486 16.096,14.682 L16.096,14.682 Z"></path>
    <path d="M12.5,17 L10.5,17 C10.224,17 10,17.224 10,17.5 L10,22.5 C10,22.776 10.224,23 10.5,23 L12.5,23 C12.776,23 13,22.776 13,22.5 L13,17.5 C13,17.224 12.776,17 12.5,17 L12.5,17 Z"></path>
    <path d="M8.317,16.096 L6.902,14.682 C6.707,14.487 6.39,14.487 6.195,14.682 L2.66,18.217 C2.465,18.412 2.465,18.729 2.66,18.924 L4.074,20.338 C4.269,20.533 4.586,20.533 4.781,20.338 L8.317,16.803 C8.513,16.607 8.513,16.291 8.317,16.096 L8.317,16.096 Z"></path>
    <path d="M6,12.5 L6,10.5 C6,10.224 5.776,10 5.5,10 L0.5,10 C0.224,10 0,10.224 0,10.5 L0,12.5 C0,12.776 0.224,13 0.5,13 L5.5,13 C5.776,13 6,12.776 6,12.5 L6,12.5 Z"></path>
    <path d="M6.902,8.318 L8.317,6.903 C8.512,6.708 8.512,6.391 8.317,6.196 L4.781,2.66 C4.586,2.465 4.269,2.465 4.074,2.66 L2.66,4.075 C2.465,4.27 2.465,4.587 2.66,4.782 L6.195,8.318 C6.391,8.514 6.707,8.514 6.902,8.318 L6.902,8.318 Z"></path>
  </g>
</svg>
