<?xml version="1.0" encoding="UTF-8"?>
<svg width="24px" height="24px" viewBox="0 0 24 24" version="1.1" xmlns="http://www.w3.org/2000/svg" xmlns:xlink="http://www.w3.org/1999/xlink">
    <!-- Generator: Sketch 41.2 (35397) - http://www.bohemiancoding.com/sketch -->
    <desc>Created with Sketch.</desc>
    <defs></defs>
    <g id="Symbols" stroke="none" stroke-width="1" fill="none" fill-rule="evenodd">
        <g id="Icon-/-Barcode-Generator-/-Color">
            <rect id="Background-Fill" fill="#FFA926" x="0" y="0" width="24" height="24" rx="12"></rect>
            <path d="M16.7522326,8 L7.2502596,8 C6.56061641,8 6,8.56111651 6,9.2502596 L6,14.251298 C6,14.9404411 6.56061641,15.5015576 7.2502596,15.5015576 L16.7522326,15.5015576 C17.4418758,15.5015576 18.0024922,14.9404411 17.9999917,14.251298 L17.9999917,9.2502596 C18.0024922,8.56111651 17.4418758,8 16.7522326,8 L16.7522326,8 Z M7.497811,14.0012461 L6.99770716,14.0012461 L6.99770716,9.50031152 L7.497811,9.50031152 L7.497811,14.0012461 L7.497811,14.0012461 Z M8.49801869,14.0012461 L7.99791485,14.0012461 L7.99791485,13.5011423 L8.49801869,13.5011423 L8.49801869,14.0012461 L8.49801869,14.0012461 Z M8.49801869,13.0010384 L7.99791485,13.0010384 L7.99791485,9.50031152 L8.49801869,9.50031152 L8.49801869,13.0010384 L8.49801869,13.0010384 Z M9.49822637,14.0012461 L8.99812253,14.0012461 L8.99812253,13.5011423 L9.49822637,13.5011423 L9.49822637,14.0012461 L9.49822637,14.0012461 Z M9.49822637,13.0010384 L8.99812253,13.0010384 L8.99812253,9.50031152 L9.49822637,9.50031152 L9.49822637,13.0010384 L9.49822637,13.0010384 Z M10.9985379,14.0012461 L10.4984341,14.0012461 L10.4984341,13.5011423 L10.9985379,13.5011423 L10.9985379,14.0012461 L10.9985379,14.0012461 Z M10.9985379,13.0010384 L10.4984341,13.0010384 L10.4984341,9.50031152 L10.9985379,9.50031152 L10.9985379,13.0010384 L10.9985379,13.0010384 Z M11.9987456,14.0012461 L11.4986417,14.0012461 L11.4986417,13.5011423 L11.9987456,13.5011423 L11.9987456,14.0012461 L11.9987456,14.0012461 Z M11.9987456,13.0010384 L11.4986417,13.0010384 L11.4986417,9.50031152 L11.9987456,9.50031152 L11.9987456,13.0010384 L11.9987456,13.0010384 Z M13.9991609,14.0012461 L13.4990571,14.0012461 L13.4990571,13.5011423 L13.9991609,13.5011423 L13.9991609,14.0012461 L13.9991609,14.0012461 Z M13.9991609,13.0010384 L13.4990571,13.0010384 L13.4990571,9.50031152 L13.9991609,9.50031152 L13.9991609,13.0010384 L13.9991609,13.0010384 Z M14.9993686,14.0012461 L14.4992648,14.0012461 L14.4992648,13.5011423 L14.9993686,13.5011423 L14.9993686,14.0012461 L14.9993686,14.0012461 Z M14.9993686,13.0010384 L14.4992648,13.0010384 L14.4992648,9.50031152 L14.9993686,9.50031152 L14.9993686,13.0010384 L14.9993686,13.0010384 Z M15.9995763,14.0012461 L15.4994725,14.0012461 L15.4994725,13.5011423 L15.9995763,13.5011423 L15.9995763,14.0012461 L15.9995763,14.0012461 Z M15.9995763,13.0010384 L15.4994725,13.0010384 L15.4994725,9.50031152 L15.9995763,9.50031152 L15.9995763,13.0010384 L15.9995763,13.0010384 Z M16.999784,14.0012461 L16.4996801,14.0012461 L16.4996801,9.50031152 L16.999784,9.50031152 L16.999784,14.0012461 L16.999784,14.0012461 Z" id="Icon-/-Barcode" fill="#FFFFFF"></path>
        </g>
    </g>
</svg>