<?xml version="1.0" encoding="UTF-8"?>
<svg width="24px" height="24px" viewBox="0 0 24 24" version="1.1" xmlns="http://www.w3.org/2000/svg" xmlns:xlink="http://www.w3.org/1999/xlink">
    <!-- Generator: Sketch 41.2 (35397) - http://www.bohemiancoding.com/sketch -->
    <desc>Created with Sketch.</desc>
    <defs></defs>
    <g id="Symbols" stroke="none" stroke-width="1" fill="none" fill-rule="evenodd">
        <g id="Icon-/-Dynamic-Timer-/-Color">
            <rect id="Background-Fill" fill="#A862CE" x="0" y="0" width="24" height="24" rx="12"></rect>
            <path d="M12.7527862,7 C10.1292862,7 7.95528624,8.936 7.56978624,11.4535 L6.91578624,10.4725 C6.76278624,10.243 6.45278624,10.1805 6.22278624,10.334 C5.99278624,10.4875 5.93078624,10.7975 6.08428624,11.0275 L7.64978624,13.3535 C7.84528624,13.5495 8.16128624,13.549 8.35678624,13.3535 L10.1267862,11.329 C10.3082862,11.1215 10.2872862,10.8055 10.0792862,10.6235 C9.87128624,10.442 9.55578624,10.462 9.37328624,10.671 L8.55728624,11.6035 C8.87028624,9.567 10.6297862,8 12.7527862,8 C15.0962862,8 17.0027862,9.9065 17.0027862,12.25 C17.0027862,14.5935 15.0962862,16.5 12.7527862,16.5 C12.4762862,16.5 12.2527862,16.7235 12.2527862,17 C12.2527862,17.2765 12.4762862,17.5 12.7527862,17.5 C15.6477862,17.5 18.0027862,15.145 18.0027862,12.25 C18.0027862,9.355 15.6477862,7 12.7527862,7 Z M15.2527862,13 L12.5027862,13 C12.2262862,13 12.0027862,12.7765 12.0027862,12.5 L12.0027862,9.75 C12.0027862,9.4735 12.2262862,9.25 12.5027862,9.25 C12.7792862,9.25 13.0027862,9.4735 13.0027862,9.75 L13.0027862,12 L15.2527862,12 C15.5292862,12 15.7527862,12.2235 15.7527862,12.5 C15.7527862,12.7765 15.5292862,13 15.2527862,13 Z" id="Combined-Shape" fill="#FFFFFF"></path>
        </g>
    </g>
</svg>