<?xml version="1.0" encoding="UTF-8"?>
<svg width="24px" height="24px" viewBox="0 0 24 24" version="1.1" xmlns="http://www.w3.org/2000/svg" xmlns:xlink="http://www.w3.org/1999/xlink">
    <!-- Generator: Sketch 41.2 (35397) - http://www.bohemiancoding.com/sketch -->
    <desc>Created with Sketch.</desc>
    <defs></defs>
    <g id="Symbols" stroke="none" stroke-width="1" fill="none" fill-rule="evenodd">
        <g id="Icon-/-Image-Personalization-/-Color">
            <rect id="Background-Fill" fill="#FFA926" x="0" y="0" width="24" height="24" rx="12"></rect>
            <path d="M15.324,16 L8.80533333,16 L6,16 L6,17.6666667 C6,17.8506667 6.14933333,18 6.33333333,18 L17.6666667,18 C17.8506667,18 18,17.8506667 18,17.6666667 L18,16 L15.3373333,16 L15.324,16 Z M17.6666667,6 L6.33333333,6 C6.14933333,6 6,6.14933333 6,6.33333333 L6,15.3333333 L8.498,15.3333333 C8.62533333,13.9686667 9.51333333,12.824 10.7393333,12.3346667 C10.1093333,11.908 9.694,11.1866667 9.694,10.37 C9.694,9.06333333 10.758,8 12.0653333,8 C13.372,8 14.4353333,9.06333333 14.4353333,10.37 C14.4353333,11.186 14.0213333,11.906 13.3926667,12.3326667 C14.6186667,12.822 15.5053333,13.968 15.6326667,15.3326667 L18,15.3326667 L18,6.33333333 C18,6.14933333 17.8506667,6 17.6666667,6 Z" id="Icon-/-Image" fill="#FFFFFF"></path>
        </g>
    </g>
</svg>