<?xml version="1.0" encoding="UTF-8"?>
<svg width="29px" height="48px" viewBox="0 0 29 48" version="1.1" xmlns="http://www.w3.org/2000/svg" xmlns:xlink="http://www.w3.org/1999/xlink">
    <!-- Generator: Sketch 64 (93537) - https://sketch.com -->
    <desc>Created with Sketch.</desc>
    <g id="Symbols" stroke="none" stroke-width="1" fill="none" fill-rule="evenodd">
        <g id="Icon/Mobile-Inbox" transform="translate(-10.000000, 0.000000)">
            <g id="svg-channel-mobile-inbox" transform="translate(10.000000, 0.000000)">
                <rect id="Rectangle" fill="#FFFFFF" x="2" y="2" width="25" height="44"></rect>
                <rect id="Rectangle" fill="#767680" x="2" y="8" width="25.5" height="11"></rect>
                <rect id="Rectangle-Copy-2" fill="#FFFFFF" x="2" y="19" width="25.5" height="11"></rect>
                <rect id="Rectangle-Copy-3" fill="#FFFFFF" x="2" y="30" width="25.5" height="11"></rect>
                <path d="M22.9067111,0 C25.7380664,0 29,3.12322099 29,5.79168932 L29,5.79168932 L29,42.2083107 C29,44.876779 25.7380664,48 22.9067111,48 L22.9067111,48 L6.0932889,48 C3.26193362,48 0,44.876779 0,42.2083107 L0,42.2083107 L0,5.79168932 C0,3.12322099 3.26193362,0 6.0932889,0 L6.0932889,0 Z M26.609,41 L2.39,41 L2.3907284,42.2083107 C2.3907284,44.0733692 3.94319825,45.5966891 5.89664979,45.6930271 L6.0932889,45.6978641 L22.9067111,45.6978641 C24.9515788,45.6978641 26.6092716,44.1355378 26.6092716,42.2083107 L26.6092716,42.2083107 L26.609,41 Z M26.609,8 L2.39,8 L2.39,39 L26.609,39 L26.609,8 Z M22.9067111,2.30213592 L6.0932889,2.30213592 C4.0484212,2.30213592 2.3907284,3.86446219 2.3907284,5.79168932 L2.3907284,5.79168932 L2.39,6 L26.609,6 L26.6092716,5.79168932 C26.6092716,3.92663081 25.0568018,2.40331088 23.1033502,2.30697292 L22.9067111,2.30213592 Z M17.3430657,4 C17.7058805,4 18,4.22385763 18,4.5 C18,4.75313051 17.7528579,4.96232731 17.4322078,4.99543559 L17.3430657,5 L12.6569343,5 C12.2941195,5 12,4.77614237 12,4.5 C12,4.24686949 12.2471421,4.03767269 12.5677922,4.00456441 L12.6569343,4 L17.3430657,4 Z" id="Combined-Shape" fill="#C5C5CA" fill-rule="nonzero"></path>
                <path d="M6,11.5 C4.8954305,11.5 4,12.3954305 4,13.5 C4,14.6045695 4.8954305,15.5 6,15.5 C7.1045695,15.5 8,14.6045695 8,13.5 C8,12.3954305 7.1045695,11.5 6,11.5 Z" id="Oval" fill="#FFFFFF" fill-rule="nonzero"></path>
                <line x1="11.5" y1="13.5" x2="23.5" y2="13.5" id="Line" stroke="#FFFFFF" stroke-width="3" stroke-linecap="round"></line>
                <line x1="5.5" y1="24.5" x2="23.5" y2="24.5" id="Line-Copy-2" stroke="#C5C5CA" stroke-width="3" stroke-linecap="round"></line>
                <line x1="5.5" y1="33.5" x2="23.5" y2="33.5" id="Line-Copy-3" stroke="#C5C5CA" stroke-width="3" stroke-linecap="round"></line>
            </g>
        </g>
    </g>
</svg>