<?xml version="1.0" encoding="UTF-8"?>
<svg width="24px" height="24px" viewBox="0 0 24 24" version="1.1" xmlns="http://www.w3.org/2000/svg" xmlns:xlink="http://www.w3.org/1999/xlink">
    <!-- Generator: Sketch 41.2 (35397) - http://www.bohemiancoding.com/sketch -->
    <desc>Created with Sketch.</desc>
    <defs></defs>
    <g id="Symbols" stroke="none" stroke-width="1" fill="none" fill-rule="evenodd">
        <g id="Icon-/-Multi-Personalization-/-Color">
            <rect id="Background-Fill" fill="#FFA926" x="0" y="0" width="24" height="24" rx="12"></rect>
            <path d="M17.7501238,9.30707457 L16.3635852,9.19198423 L16.3635852,15.5454074 C16.3635852,15.997587 15.997587,16.3635852 15.5454074,16.3635852 L8.64216876,16.3635852 L8.5658055,16.9483095 C8.54562379,17.1015815 8.65744141,17.2406717 8.81125884,17.2548535 L16.9586731,17.9983043 C17.0955815,18.0157588 17.2406717,17.9093957 17.2553989,17.7517601 L17.9988498,9.60325492 C18.0124861,9.45489202 17.9033957,9.32071086 17.7501238,9.30707457 Z M13.6286896,14.1817778 L8.29526139,14.1817778 L6,14.1817778 L6,15.5454074 C6,15.6959521 6.12218121,15.8181333 6.27272593,15.8181333 L15.5454074,15.8181333 C15.6959521,15.8181333 15.8181333,15.6959521 15.8181333,15.5454074 L15.8181333,14.1817778 L13.6395986,14.1817778 L13.6286896,14.1817778 Z M15.5454074,6 L6.27272593,6 C6.12218121,6 6,6.12218121 6,6.27272593 L6,13.6363259 L8.04380808,13.6363259 C8.14798939,12.519786 8.87453125,11.5832451 9.8776172,11.1828835 C9.3621652,10.8337943 9.0223487,10.2436154 9.0223487,9.57543688 C9.0223487,8.50635125 9.89288986,7.63635555 10.9625209,7.63635555 C12.0316066,7.63635555 12.9016023,8.50635125 12.9016023,9.57543688 C12.9016023,10.2430699 12.5628767,10.8321579 12.0485156,11.1812471 C13.0516015,11.5816088 13.7770525,12.5192405 13.8812338,13.6357805 L15.8181333,13.6357805 L15.8181333,6.27272593 C15.8181333,6.12218121 15.6959521,6 15.5454074,6 Z" id="Icon-/-Images" fill="#FFFFFF"></path>
        </g>
    </g>
</svg>