<?xml version="1.0" encoding="UTF-8"?>
<svg width="24px" height="24px" viewBox="0 0 24 24" version="1.1" xmlns="http://www.w3.org/2000/svg" xmlns:xlink="http://www.w3.org/1999/xlink">
    <!-- Generator: Sketch 41.2 (35397) - http://www.bohemiancoding.com/sketch -->
    <title>Icon / Proximity Targeting / Color</title>
    <desc>Created with Sketch.</desc>
    <defs></defs>
    <g id="Symbols" stroke="none" stroke-width="1" fill="none" fill-rule="evenodd">
        <g id="Icon-/-Proximity-Targeting-/-Color">
            <rect id="Background-Fill" fill="#00C8AD" x="0" y="0" width="24" height="24" rx="12"></rect>
            <g id="Proximity-Targeting" transform="translate(7.000000, 6.000000)" fill="#FFFFFF">
                <path d="M4.75,0 C2.042,0 0,2.149 0,5 C0,8.5865 4.4155,11.817 4.6035,11.9525 C4.647,11.9845 4.699,12 4.75,12 C4.801,12 4.853,11.9845 4.8965,11.9525 C5.084,11.817 9.5,8.5865 9.5,5 C9.5,2.149 7.458,0 4.75,0 Z M7.75,5 L6.9745,5 C6.858,6.0385 6.0385,6.8585 5,6.9745 L5,7.75 C5,7.888 4.888,8 4.75,8 C4.612,8 4.5,7.888 4.5,7.75 L4.5,6.9745 C3.461,6.8585 2.642,6.0385 2.5255,5 L1.75,5 C1.612,5 1.5,4.888 1.5,4.75 C1.5,4.6115 1.612,4.5 1.75,4.5 L2.5255,4.5 C2.642,3.461 3.461,2.642 4.5,2.5255 L4.5,1.75 C4.5,1.6115 4.612,1.5 4.75,1.5 C4.888,1.5 5,1.6115 5,1.75 L5,2.5255 C6.0385,2.642 6.858,3.461 6.9745,4.5 L7.75,4.5 C7.888,4.5 8,4.6115 8,4.75 C8,4.888 7.888,5 7.75,5 Z" id="Shape"></path>
                <path d="M5.75,4.5 L6.4745,4.5 C6.3635,3.7365 5.7635,3.136 5,3.0255 L5,3.75 C5,3.888 4.888,4 4.75,4 C4.612,4 4.5,3.888 4.5,3.75 L4.5,3.0255 C3.7365,3.136 3.136,3.7365 3.0255,4.5 L3.75,4.5 C3.888,4.5 4,4.6115 4,4.75 C4,4.888 3.888,5 3.75,5 L3.0255,5 C3.136,5.763 3.7365,6.3635 4.5,6.4745 L4.5,5.75 C4.5,5.6115 4.612,5.5 4.75,5.5 C4.888,5.5 5,5.6115 5,5.75 L5,6.4745 C5.7635,6.3635 6.3635,5.763 6.4745,5 L5.75,5 C5.612,5 5.5,4.888 5.5,4.75 C5.5,4.6115 5.612,4.5 5.75,4.5 Z" id="Shape"></path>
            </g>
        </g>
    </g>
</svg>