<?xml version="1.0" encoding="UTF-8"?>
<svg width="24px" height="24px" viewBox="0 0 24 24" version="1.1" xmlns="http://www.w3.org/2000/svg" xmlns:xlink="http://www.w3.org/1999/xlink">
    <!-- Generator: Sketch 41.2 (35397) - http://www.bohemiancoding.com/sketch -->
    <title>Icon / QR Code Generator / Color</title>
    <desc>Created with Sketch.</desc>
    <defs></defs>
    <g id="Symbols" stroke="none" stroke-width="1" fill="none" fill-rule="evenodd">
        <g id="Icon-/-QR-Code-Generator-/-Color">
            <rect id="Background-Fill" fill="#FFA926" x="0" y="0" width="24" height="24" rx="12"></rect>
            <path d="M17.75,7 L6.25,7 C6.112,7 6,7.112 6,7.25 L6,16.75 C6,16.888 6.112,17 6.25,17 L17.75,17 C17.888,17 18,16.888 18,16.75 L18,7.25 C18,7.112 17.888,7 17.75,7 Z M14,9.25 C14,9.112 14.112,9 14.25,9 L15.25,9 C15.388,9 15.5,9.112 15.5,9.25 L15.5,10.25 C15.5,10.388 15.388,10.5 15.25,10.5 L14.25,10.5 C14.112,10.5 14,10.388 14,10.25 L14,9.25 Z M13.008,9.25 C13.008,9.112 13.12,9 13.258,9 C13.396,9 13.508,9.112 13.508,9.25 L13.508,9.75 C13.508,9.888 13.396,10 13.258,10 C13.12,10 13.008,9.888 13.008,9.75 L13.008,9.25 Z M10.5,9.258 C10.5,9.12 10.612,9.008 10.75,9.008 C10.888,9.008 11,9.12 11,9.258 L11,10 L11.25,10 C11.388,10 11.5,10.112 11.5,10.25 C11.5,10.388 11.388,10.5 11.25,10.5 L10.75,10.5 C10.612,10.5 10.5,10.388 10.5,10.25 L10.5,9.258 Z M11,12.75 C11,12.888 10.888,13 10.75,13 L8.75,13 C8.612,13 8.5,12.888 8.5,12.75 C8.5,12.612 8.612,12.5 8.75,12.5 L10.75,12.5 C10.888,12.5 11,12.612 11,12.75 Z M10.5,11.25 L10.5,11.75 C10.5,11.888 10.388,12 10.25,12 C10.112,12 10,11.888 10,11.75 L10,11.5 L8.75,11.5 C8.612,11.5 8.5,11.388 8.5,11.25 C8.5,11.112 8.612,11 8.75,11 L10.25,11 C10.388,11 10.5,11.112 10.5,11.25 Z M8.75,9 L9.75,9 C9.888,9 10,9.112 10,9.25 L10,10.25 C10,10.388 9.888,10.5 9.75,10.5 L8.75,10.5 C8.612,10.5 8.5,10.388 8.5,10.25 L8.5,9.25 C8.5,9.112 8.612,9 8.75,9 Z M6.5155,7.7655 C6.5155,7.6275 6.6275,7.5155 6.7655,7.5155 L8.25,7.5155 C8.388,7.5155 8.5,7.6275 8.5,7.7655 C8.5,7.9035 8.388,8.0155 8.25,8.0155 L7.0155,8.0155 L7.0155,9.25 C7.0155,9.388 6.9035,9.5 6.7655,9.5 C6.6275,9.5 6.5155,9.388 6.5155,9.25 L6.5155,7.7655 L6.5155,7.7655 Z M8.2345,16.5 L6.75,16.5 C6.612,16.5 6.5,16.388 6.5,16.25 L6.5,14.7655 C6.5,14.6275 6.612,14.5155 6.75,14.5155 C6.888,14.5155 7,14.6275 7,14.7655 L7,16 L8.2345,16 C8.3725,16 8.4845,16.112 8.4845,16.25 C8.4845,16.388 8.3725,16.5 8.2345,16.5 Z M10,14.75 C10,14.888 9.888,15 9.75,15 L8.75,15 C8.612,15 8.5,14.888 8.5,14.75 L8.5,13.75 C8.5,13.612 8.612,13.5 8.75,13.5 L9.75,13.5 C9.888,13.5 10,13.612 10,13.75 L10,14.75 Z M12.25,15 L10.75,15 C10.612,15 10.5,14.888 10.5,14.75 L10.5,13.7655 C10.5,13.6275 10.612,13.5155 10.75,13.5155 C10.888,13.5155 11,13.6275 11,13.7655 L11,14.5 L12.25,14.5 C12.388,14.5 12.5,14.612 12.5,14.75 C12.5,14.888 12.388,15 12.25,15 Z M12.25,14 L11.758,14 C11.62,14 11.508,13.888 11.508,13.75 C11.508,13.612 11.62,13.5 11.758,13.5 L12.25,13.5 C12.388,13.5 12.5,13.612 12.5,13.75 C12.5,13.888 12.388,14 12.25,14 Z M11.508,12.75 L11.508,12.25 C11.508,12.112 11.62,12 11.758,12 C11.896,12 12.008,12.112 12.008,12.25 L12.008,12.75 C12.008,12.888 11.896,13 11.758,13 C11.6195,13 11.508,12.888 11.508,12.75 Z M12.5,11.25 C12.5,11.388 12.388,11.5 12.25,11.5 L11.25,11.5 C11.112,11.5 11,11.388 11,11.25 C11,11.112 11.112,11 11.25,11 L12,11 L12,9.258 C12,9.12 12.112,9.008 12.25,9.008 C12.388,9.008 12.5,9.12 12.5,9.258 L12.5,11.25 Z M15.5,12.75 C15.5,12.888 15.388,13 15.25,13 C15.112,13 15,12.888 15,12.75 L15,12.5 L13.5,12.5 L13.5,14.5 L15,14.5 L15,14 L14.258,14 C14.12,14 14.008,13.888 14.008,13.75 C14.008,13.612 14.12,13.5 14.258,13.5 L15.25,13.5 C15.388,13.5 15.5,13.612 15.5,13.75 L15.5,14.75 C15.5,14.888 15.388,15 15.25,15 L13.258,15 C13.12,15 13.008,14.888 13,14.75 L13,12.25 C13.008,12.112 13.1195,12 13.258,12 L15.25,12 C15.388,12 15.5,12.112 15.5,12.25 L15.5,12.75 Z M15.258,11.5 L13.258,11.5 C13.12,11.5 13.008,11.388 13.008,11.25 C13.008,11.112 13.12,11 13.258,11 L15.258,11 C15.396,11 15.508,11.112 15.508,11.25 C15.508,11.388 15.396,11.5 15.258,11.5 Z M17.5,16.25 C17.5,16.388 17.388,16.5 17.25,16.5 L15.7655,16.5 C15.6275,16.5 15.5155,16.388 15.5155,16.25 C15.5155,16.112 15.6275,16 15.7655,16 L17,16 L17,14.7655 C17,14.6275 17.112,14.5155 17.25,14.5155 C17.388,14.5155 17.5,14.6275 17.5,14.7655 L17.5,16.25 Z M17.5,9.25 C17.5,9.388 17.388,9.5 17.25,9.5 C17.112,9.5 17,9.388 17,9.25 L17,8.0155 L15.7655,8.0155 C15.6275,8.0155 15.5155,7.9035 15.5155,7.7655 C15.5155,7.6275 15.6275,7.5155 15.7655,7.5155 L17.25,7.5155 C17.388,7.5155 17.5,7.6275 17.5,7.7655 L17.5,9.25 Z M9,9.5 L9.5,9.5 L9.5,10 L9,10 L9,9.5 Z M14.5,9.5 L15,9.5 L15,10 L14.5,10 L14.5,9.5 Z M9,14 L9.5,14 L9.5,14.5 L9,14.5 L9,14 Z" id="Icon-/-QR-Code" fill="#FFFFFF"></path>
        </g>
    </g>
</svg>