<?xml version="1.0" encoding="UTF-8"?>
<svg width="24px" height="24px" viewBox="0 0 24 24" version="1.1" xmlns="http://www.w3.org/2000/svg" xmlns:xlink="http://www.w3.org/1999/xlink">
    <!-- Generator: Sketch 41.2 (35397) - http://www.bohemiancoding.com/sketch -->
    <desc>Created with Sketch.</desc>
    <defs></defs>
    <g id="Symbols" stroke="none" stroke-width="1" fill="none" fill-rule="evenodd">
        <g id="Icon-/-Custom-App-One-/-Color">
            <rect id="Background-Fill" fill="#3E517A" x="0" y="0" width="24" height="24" rx="12"></rect>
            <path d="M17.927225,6.82200238 L17.1782986,6.07307594 C17.0924217,5.98769833 16.9576149,5.97571551 16.8592559,6.04461674 L15.0912903,7.27235681 C15.0303776,7.31479597 14.9919327,7.38170007 14.9849427,7.45559414 C14.978452,7.52898894 15.0049141,7.60188444 15.0573389,7.65430929 L15.5256676,8.12163939 L10.5473039,13.1000031 L9.66456931,12.2177677 C9.56720887,12.119908 9.40893575,12.119908 9.31157532,12.2177677 C9.21421488,12.3146289 9.21421488,12.472902 9.31157532,12.5707617 L9.66407002,12.9232564 L6.55952031,16.0288047 C6.37079084,16.2175342 6.26693971,16.4681749 6.26693971,16.7342934 C6.26693971,17.0014105 6.37079084,17.2525505 6.55902102,17.4397821 C6.7472512,17.6290109 6.99789191,17.732862 7.26500901,17.732862 C7.5321261,17.732862 7.78276682,17.6290109 7.97149628,17.4402814 L11.0755467,14.3357317 L11.4285407,14.6887257 C11.4774706,14.7376555 11.541379,14.7616212 11.6047881,14.7616212 C11.6686965,14.7616212 11.7326048,14.7376555 11.7815347,14.6887257 C11.8788951,14.5908659 11.8788951,14.4330921 11.7815347,14.3357317 L10.8992994,13.4534963 L15.8781623,8.47463338 L16.2925683,8.88953863 C16.339501,8.93647135 16.4034094,8.96293342 16.4693149,8.96293342 C16.4753063,8.96293342 16.4807984,8.96293342 16.4872891,8.96193485 C16.5596854,8.95744129 16.6255909,8.92099354 16.6690286,8.86257728 L17.9501921,7.14803502 C18.0245855,7.04817816 18.0145998,6.90987642 17.927225,6.82200238 Z M8.9625756,10.3883901 L10.7594998,12.18132 L12.1739722,10.7673468 L10.3745516,8.96742698 C10.6476601,8.15958499 10.4439521,7.27135824 9.83432597,6.66173212 C9.19374422,6.02164966 8.23112411,5.83341948 7.40630646,6.18191992 C7.33241239,6.21287555 7.27749112,6.27828179 7.26001617,6.35666942 C7.24204193,6.43505705 7.26301187,6.51743896 7.31643529,6.57735308 L8.18718709,7.55944528 L8.18718709,8.2135077 L7.53612038,8.2135077 L6.57699526,7.32428238 C6.51708114,7.2693611 6.43519852,7.2473926 6.35481375,7.26336969 C6.27542754,7.28134393 6.20902273,7.33576592 6.17706854,7.41065856 C5.82207741,8.25045474 6.01030759,9.21107771 6.65688074,9.85715158 C7.25152833,10.4522985 8.16671644,10.6575043 8.9625756,10.3883901 Z M14.9459985,13.5388739 L13.2329541,11.8258295 L11.8194803,13.2398027 L13.5340226,14.9508499 C13.2614133,15.7581926 13.464622,16.6474179 14.0742482,17.2570441 C14.4981405,17.6804371 15.0618325,17.9131036 15.6614729,17.9131036 C15.9650378,17.9131036 16.2606141,17.8536888 16.539714,17.7353584 C16.6156052,17.7034042 16.6710258,17.6365001 16.6875021,17.5556161 C16.7034792,17.4752313 16.6795136,17.3913515 16.6225952,17.332436 L15.6764515,16.3518416 L15.6764515,15.7027721 L16.3280175,15.7027721 L17.3320782,16.6294437 C17.391493,16.6848643 17.4733756,16.7068328 17.5537604,16.6903564 C17.6331466,16.67388 17.6995514,16.6184594 17.7310063,16.5435668 C18.0894924,15.6962814 17.9012623,14.7286684 17.2511941,14.0790995 C16.6535508,13.480957 15.7403598,13.2712576 14.9459985,13.5388739 Z" id="Icon-/-Tools" fill="#FFFFFF"></path>
        </g>
    </g>
</svg>