<?xml version="1.0" encoding="UTF-8"?>
<svg width="24px" height="24px" viewBox="0 0 24 24" version="1.1" xmlns="http://www.w3.org/2000/svg" xmlns:xlink="http://www.w3.org/1999/xlink">
    <!-- Generator: Sketch 41.2 (35397) - http://www.bohemiancoding.com/sketch -->
    <desc>Created with Sketch.</desc>
    <defs></defs>
    <g id="Symbols" stroke="none" stroke-width="1" fill="none" fill-rule="evenodd">
        <g id="Icon-/-Weather-/-Color">
            <rect id="Background-Fill" fill="#00C8AD" x="0" y="0" width="24" height="24" rx="12"></rect>
            <path d="M17.1745,13.9905 C17.5165,12.8685 16.664,11.7075 15.475,11.7325 C14.228,9.018 10.239,9.6165 9.787,12.5205 C8.4695,12.741 7.5,13.873 7.5,15.231 C7.5,16.747 8.7335,17.981 10.25,17.981 L15.75,17.981 C16.9905,17.981 18,16.9715 18,15.731 C18,15.0535 17.6945,14.416 17.1745,13.9905 Z M10.75,7 C10.888,7 11,6.8885 11,6.75 L11,6.25 C11,6.1125 10.888,6 10.75,6 C10.612,6 10.5,6.1125 10.5,6.25 L10.5,6.75 C10.5,6.8885 10.612,7 10.75,7 Z M7.9265,7.913 C8.024,7.8155 8.024,7.657 7.9265,7.5595 L7.4265,7.0595 C7.329,6.962 7.1705,6.962 7.073,7.0595 C6.9755,7.157 6.9755,7.3155 7.073,7.413 L7.573,7.913 C7.671,8.011 7.829,8.011 7.9265,7.913 Z M13.927,7.913 L14.427,7.413 C14.5245,7.3155 14.5245,7.157 14.427,7.0595 C14.3295,6.962 14.171,6.962 14.0735,7.0595 L13.5735,7.5595 C13.476,7.657 13.476,7.8155 13.5735,7.913 C13.671,8.0105 13.829,8.011 13.927,7.913 Z M6.75,10.5 L6.25,10.5 C6.112,10.5 6,10.6125 6,10.75 C6,10.8885 6.112,11 6.25,11 L6.75,11 C6.888,11 7,10.8885 7,10.75 C7,10.6125 6.888,10.5 6.75,10.5 Z M9.3635,12.1075 C9.855,10.224 11.857,9.025 13.8055,9.6555 C13.355,8.401 12.157,7.5 10.75,7.5 C8.958,7.5 7.5,8.958 7.5,10.75 C7.5,11.494 7.754,12.1785 8.176,12.7275 C8.5165,12.4465 8.918,12.2325 9.3635,12.1075 Z" id="Icon-/-Weather" fill="#FFFFFF"></path>
        </g>
    </g>
</svg>