<?xml version="1.0" encoding="UTF-8"?>
<svg width="24px" height="24px" viewBox="0 0 24 24" version="1.1" xmlns="http://www.w3.org/2000/svg" xmlns:xlink="http://www.w3.org/1999/xlink">
    <!-- Generator: Sketch 52.6 (67491) - http://www.bohemiancoding.com/sketch -->
    <title>Icon / Augmented Reality / Color</title>
    <desc>Created with Sketch.</desc>
    <g id="Page-1" stroke="none" stroke-width="1" fill="none" fill-rule="evenodd">
        <g id="AR_Icon">
            <rect id="Background-Fill" fill="#00C8AD" x="0" y="0" width="24" height="24" rx="12"></rect>
            <path d="M16,18 L8,18 L8,7 L16,7 L16,18 Z M15.3333334,4 L8.66666666,4 C7.74619048,4 7,4.65124324 7,5.4547027 L7,18.5452973 C7,19.3487567 7.74619048,20 8.66666666,20 L15.3333334,20 C16.2538095,20 17,19.3487567 17,18.5452973 L17,5.4547027 C17,4.65124324 16.2538095,4 15.3333334,4 Z" id="Fill-1" fill="#FFFFFF" fill-rule="nonzero"></path>
            <polyline id="Stroke-3" stroke="#FFFFFF" stroke-linecap="round" stroke-linejoin="round" points="11 16.5 9.5 16.5 9.5 15"></polyline>
            <polyline id="Stroke-4" stroke="#FFFFFF" stroke-linecap="round" stroke-linejoin="round" points="9.5 10 9.5 8.5 11 8.5"></polyline>
            <polyline id="Stroke-5" stroke="#FFFFFF" stroke-linecap="round" stroke-linejoin="round" points="13 8.5 14.5 8.5 14.5 10"></polyline>
            <polyline id="Stroke-6" stroke="#FFFFFF" stroke-linecap="round" stroke-linejoin="round" points="14.5 15 14.5 16.5 13 16.5"></polyline>
        </g>
    </g>
</svg>
