<?xml version="1.0" encoding="UTF-8"?>
<svg width="24px" height="24px" viewBox="0 0 24 24" version="1.1" xmlns="http://www.w3.org/2000/svg" xmlns:xlink="http://www.w3.org/1999/xlink">
    <!-- Generator: Sketch 41.2 (35397) - http://www.bohemiancoding.com/sketch -->
    <title>Icon / Custom App Three / Color</title>
    <desc>Created with Sketch.</desc>
    <defs></defs>
    <g id="Symbols" stroke="none" stroke-width="1" fill="none" fill-rule="evenodd">
        <g id="Icon-/-Custom-App-Three-/-Color">
            <rect id="Background-Fill" fill="#3E517A" x="0" y="0" width="24" height="24" rx="12"></rect>
            <path d="M6.24999103,7 L7.99992825,7 C8.11592409,7 8.21692047,7.07999713 8.24341951,7.19299308 L8.9043958,9.99989237 L17.7495785,9.99989237 C17.9215723,9.99989237 18.040568,10.1673864 17.9870699,10.3293806 L16.4871238,14.8292191 C16.452625,14.9307155 16.3576284,14.999713 16.2496323,14.999713 L10.0803536,14.999713 L10.1978494,15.4996951 L15.4996592,15.4996951 C16.0516394,15.4996951 16.4996233,15.948679 16.4996233,16.4996592 C16.4996233,17.0516394 16.0516394,17.4996233 15.4996592,17.4996233 C14.7506861,17.4996233 14.2392044,16.6871525 14.6386901,15.9996771 L10.8613256,15.9996771 C11.2568114,16.6806527 10.7558294,17.4996233 9.9998565,17.4996233 C9.44887627,17.4996233 8.99989237,17.0516394 8.99989237,16.4996592 C8.99989237,16.0546752 9.29388183,15.6811886 9.69686737,15.5516932 L7.80243534,7.49998206 L6.24999103,7.49998206 C6.11249596,7.49998206 6,7.38798608 6,7.24999103 C6,7.11199598 6.11249596,7 6.24999103,7 L6.24999103,7 Z" id="Icon-/-Cart" fill="#FFFFFF"></path>
        </g>
    </g>
</svg>