<?xml version="1.0" encoding="UTF-8"?>
<svg width="24px" height="24px" viewBox="0 0 24 24" version="1.1" xmlns="http://www.w3.org/2000/svg" xmlns:xlink="http://www.w3.org/1999/xlink">
    <!-- Generator: Sketch 41.2 (35397) - http://www.bohemiancoding.com/sketch -->
    <title>Icon / Custom App Two / Color</title>
    <desc>Created with Sketch.</desc>
    <defs></defs>
    <g id="Symbols" stroke="none" stroke-width="1" fill="none" fill-rule="evenodd">
        <g id="Icon-/-Custom-App-Two-/-Color">
            <rect id="Background-Fill" fill="#3E517A" x="0" y="0" width="24" height="24" rx="12"></rect>
            <path d="M6,16.75 C6,16.888 6.112,17 6.25,17 L17.75,17 C17.888,17 18,16.888 18,16.75 L18,10 L6,10 L6,16.75 L6,16.75 Z M12,12.5 L14,12.5 C14.138,12.5 14.25,12.612 14.25,12.75 C14.25,12.888 14.138,13 14,13 L12,13 C11.862,13 11.75,12.888 11.75,12.75 C11.75,12.612 11.862,12.5 12,12.5 L12,12.5 Z M9.0735,11.427 C8.976,11.3295 8.976,11.171 9.0735,11.0735 C9.171,10.976 9.3295,10.976 9.427,11.0735 L10.677,12.3235 C10.7745,12.421 10.7745,12.5795 10.677,12.677 L9.427,13.927 C9.3295,14.0245 9.171,14.0245 9.0735,13.927 C8.976,13.8295 8.976,13.671 9.0735,13.5735 L10.1465,12.5 L9.0735,11.427 Z M17.75,7 L6.25,7 C6.112,7 6,7.112 6,7.25 L6,9.5 L18,9.5 L18,7.25 C18,7.112 17.888,7 17.75,7 Z M13,9 C12.724,9 12.5,8.776 12.5,8.5 C12.5,8.224 12.724,8 13,8 C13.2755,8 13.5,8.224 13.5,8.5 C13.5,8.776 13.2755,9 13,9 Z M14.5,9 C14.224,9 14,8.776 14,8.5 C14,8.224 14.224,8 14.5,8 C14.7755,8 15,8.224 15,8.5 C15,8.776 14.7755,9 14.5,9 Z M16,9 C15.724,9 15.5,8.776 15.5,8.5 C15.5,8.224 15.724,8 16,8 C16.2755,8 16.5,8.224 16.5,8.5 C16.5,8.776 16.2755,9 16,9 Z" id="Icon-/-Code" fill="#FFFFFF"></path>
        </g>
    </g>
</svg>