<?xml version="1.0" encoding="UTF-8"?>
<svg width="24px" height="24px" viewBox="0 0 24 24" version="1.1" xmlns="http://www.w3.org/2000/svg" xmlns:xlink="http://www.w3.org/1999/xlink">
    <!-- Generator: Sketch 41.2 (35397) - http://www.bohemiancoding.com/sketch -->
    <title>Icon / Local Maps / Color</title>
    <desc>Created with Sketch.</desc>
    <defs></defs>
    <g id="Symbols" stroke="none" stroke-width="1" fill="none" fill-rule="evenodd">
        <g id="Icon-/-Local-Maps-/-Color">
            <rect id="Background-Fill" fill="#00C8AD" x="0" y="0" width="24" height="24" rx="12"></rect>
            <path d="M13.3849641,7.9444696 C13.3849641,9.01777831 11.4399597,11.3478262 11.4399597,11.3478262 C11.4399597,11.3478262 9.4954901,9.01831309 9.4954901,7.9444696 C9.4954901,6.8706261 10.3655814,6 11.4399597,6 C12.514338,6 13.3849641,6.8706261 13.3849641,7.9444696 Z M11.4399597,8.67391308 C11.8428202,8.67391308 12.1694032,8.34733011 12.1694032,7.9444696 C12.1694032,7.54160908 11.8428202,7.21502611 11.4399597,7.21502611 C11.0370992,7.21502611 10.7105162,7.54160908 10.7105162,7.9444696 C10.7105162,8.34733011 11.0370992,8.67391308 11.4399597,8.67391308 Z M16.2530033,14.5565219 C16.2530033,14.5565219 14.5031945,12.4612436 14.5031945,11.493287 C14.5031945,10.5269349 15.2861163,9.74347832 16.2530033,9.74347832 C17.2193554,9.74347832 18.0033468,10.5269349 18.0033468,11.493287 C18.0033468,12.4607088 16.2530033,14.5565219 16.2530033,14.5565219 Z M16.2530033,12.1494653 C16.6154005,12.1494653 16.9091815,11.8556843 16.9091815,11.493287 C16.9091815,11.1308898 16.6154005,10.8371088 16.2530033,10.8371088 C15.890606,10.8371088 15.596825,11.1308898 15.596825,11.493287 C15.596825,11.8556843 15.890606,12.1494653 16.2530033,12.1494653 Z M10.4179901,13.9249436 C10.2211901,15.1014654 8.23019443,17.1069002 8.23019443,18.3000002 C8.23019443,17.1069002 6.29321179,15.2939871 6.04293353,13.9249436 C5.79425961,12.566061 6.63921615,11.3478262 8.23019443,11.3478262 C9.8217075,11.3478262 10.6500858,12.5409262 10.4179901,13.9249436 Z M8.23019443,14.4388697 C8.78338926,14.4388697 9.23184227,13.9904167 9.23184227,13.4372219 C9.23184227,12.884027 8.78338926,12.435574 8.23019443,12.435574 C7.6769996,12.435574 7.22854659,12.884027 7.22854659,13.4372219 C7.22854659,13.9904167 7.6769996,14.4388697 8.23019443,14.4388697 Z M11.7825891,12.3724971 L14.4062326,14.1212362 L14.7028347,13.6762423 L12.0791912,11.9275031 L11.7825891,12.3724971 Z M9.70966125,17.9059044 L15.0291439,15.4229087 L14.8029495,14.9383176 L9.48346678,17.4213133 L9.70966125,17.9059044 Z" id="Icon-/-Maps" fill="#FFFFFF"></path>
        </g>
    </g>
</svg>