<?xml version="1.0" encoding="UTF-8"?>
<svg width="24px" height="24px" viewBox="0 0 24 24" version="1.1" xmlns="http://www.w3.org/2000/svg" xmlns:xlink="http://www.w3.org/1999/xlink">
    <!-- Generator: Sketch 41.2 (35397) - http://www.bohemiancoding.com/sketch -->
    <title>Icon / Social Chatter / Color</title>
    <desc>Created with Sketch.</desc>
    <defs></defs>
    <g id="Symbols" stroke="none" stroke-width="1" fill="none" fill-rule="evenodd">
        <g id="Icon-/-Social-Chatter-/-Color">
            <rect id="Background-Fill" fill="#7C99B9" x="0" y="0" width="24" height="24" rx="12"></rect>
            <path d="M16.5,12.5 L15.6965,12.5 C15.2405,13.389 14.316,14 13.25,14 L11.5,14 L11.5,15 C11.5,15.827 12.173,16.5 13,16.5 L14.1465,16.5 L15.5735,17.927 C15.7295,18.083 16,17.9725 16,17.75 L16,16.5 L16.5,16.5 C17.327,16.5 18,15.827 18,15 L18,14 C18,13.173 17.327,12.5 16.5,12.5 Z M15.5,11.25 L15.5,9.25 C15.5,8.0095 14.4905,7 13.25,7 L8.25,7 C7.0095,7 6,8.0095 6,9.25 L6,11.25 C6,12.4905 7.0095,13.5 8.25,13.5 L8.5,13.5 L8.5,15.25 C8.5,15.472 8.77,15.584 8.9265,15.427 L10.8535,13.5 L13.25,13.5 C14.4905,13.5 15.5,12.4905 15.5,11.25 Z" id="Icon-/-Chatter" fill="#FFFFFF"></path>
        </g>
    </g>
</svg>