<?xml version="1.0" encoding="UTF-8"?>
<svg width="24px" height="24px" viewBox="0 0 24 24" version="1.1" xmlns="http://www.w3.org/2000/svg" xmlns:xlink="http://www.w3.org/1999/xlink">
    <!-- Generator: Sketch 41.2 (35397) - http://www.bohemiancoding.com/sketch -->
    <title>Icon / Twitter / Color</title>
    <desc>Created with Sketch.</desc>
    <style>
      #Background-Fill {
        fill: #25CAF4;
      }
    </style>
    <defs></defs>
    <g id="Symbols" stroke="none" stroke-width="1" fill="none" fill-rule="evenodd">
        <g id="Icon-/-Twitter-/-Color">
            <rect id="Background-Fill"  x="0" y="0" width="24" height="24" rx="12"></rect>
            <path d="M18,8.2479059 C17.5647835,8.44198895 17.1980039,8.44840492 16.8093032,8.25646052 C17.310818,7.95597933 17.3338086,7.74478703 17.5150597,7.1769738 C17.0456247,7.45553377 16.5253965,7.65817145 15.9720192,7.76724292 C15.5293174,7.29566922 14.8978792,7 14.1990732,7 C12.8570665,7 11.7695598,8.08857601 11.7695598,9.42951346 C11.7695598,9.61985386 11.7909464,9.80538228 11.8321155,9.98342541 C9.81322402,9.88237391 8.02263411,8.91516664 6.82445197,7.44484049 C6.61539832,7.80360007 6.49563358,8.2211727 6.49563358,8.66654785 C6.49563358,9.50971306 6.92496881,10.2528961 7.57618963,10.6886473 C7.17786491,10.6758154 6.80360007,10.5667439 6.47638567,10.3849581 C6.47585101,10.3951167 6.47585101,10.4047407 6.47585101,10.415434 C6.47585101,11.5927642 7.31313491,12.5744074 8.42523614,12.797897 C8.06914988,12.8946712 7.69381572,12.9096418 7.32757084,12.8401354 C7.63714133,13.8046694 8.53430761,14.507218 9.59721975,14.5270005 C8.55729816,15.3418286 7.26822313,15.6813402 6,15.5327036 C7.07574407,16.2218856 8.35198717,16.6239529 9.72446979,16.6239529 C14.1931919,16.6239529 16.6366067,12.921939 16.6366067,9.71128141 C16.6366067,9.60541793 16.6350027,9.50115844 16.6301907,9.39689895 C17.1044377,9.05471395 17.6743896,8.73551952 18,8.2479059 L18,8.2479059 Z" id="Icon-/-Twitter" fill="#FFFFFF"></path>
        </g>
    </g>
</svg>
