<?xml version="1.0" encoding="UTF-8"?>
<svg width="24px" height="24px" viewBox="0 0 24 24" fill="#000000" version="1.1" xmlns="http://www.w3.org/2000/svg" xmlns:xlink="http://www.w3.org/1999/xlink">
    <title>icon-alert</title>
    <desc>Created with Sketch.</desc>
	<g stroke="none" stroke-width="1" fill="inherit" fill-rule="evenodd">    
	    <g id="icon-alert">
	        <path d="M23.9441729,23.2197847 L12.4669211,0.265281025 C12.2895454,-0.0884270085 11.7094225,-0.0884270085 11.5330901,0.265281025 L0.0558383081,23.2197847 C-0.117363856,23.5641023 0.133048911,23.9751965 0.522232087,23.9751965 L23.4767358,23.9751965 C23.8669623,23.9751965 24.1173751,23.5641023 23.9441729,23.2197847 Z M11.4777907,8.48299334 C11.478834,8.19501866 11.7125526,7.96130007 12.0005273,7.96130007 C12.2874586,7.96130007 12.5222206,8.19501866 12.5211772,8.48299334 L12.5211772,16.4669871 C12.5222206,16.7539184 12.2874586,16.9886803 12.0005273,16.9886803 C11.7125526,16.9886803 11.478834,16.7539184 11.4777907,16.4669871 L11.4777907,8.48299334 Z M12.0005273,20.9577227 C11.4485758,20.9577227 11.0020064,20.5111533 11.0020064,19.9602452 C11.0020064,19.4103805 11.4485758,18.9617243 12.0005273,18.9617243 C12.550392,18.9617243 12.9980048,19.4103805 12.9980048,19.9602452 C12.9980048,20.5121966 12.550392,20.9577227 12.0005273,20.9577227 Z"></path>
	    </g>
	</g>    
</svg>