<?xml version="1.0" encoding="UTF-8"?>
<svg width="24px" height="24px" viewBox="0 0 24 24" fill="#000000" version="1.1" xmlns="http://www.w3.org/2000/svg" xmlns:xlink="http://www.w3.org/1999/xlink">
    <title>icon-failure</title>
    <desc>Created with Sketch.</desc>
    <g stroke="none" stroke-width="1" fill="inherit" fill-rule="evenodd">
        <g id="icon-failure">
            <path d="M12,0 C5.37182609,0 0,5.37182609 0,12 C0,18.6281739 5.37182609,24 12,24 C18.6281739,24 24,18.6281739 24,12 C24,5.37182609 18.6281739,0 12,0 Z M16.7958261,16.058087 C16.9993043,16.2615652 16.9993043,16.5923478 16.7958261,16.7958261 C16.5923478,16.9993043 16.2615652,16.9993043 16.058087,16.7958261 L12,12.7377391 L7.94191304,16.7958261 C7.73843478,16.9993043 7.40765217,16.9993043 7.20417391,16.7958261 C7.00069565,16.5923478 7.00069565,16.2615652 7.20417391,16.058087 L11.2622609,12 L7.20417391,7.94191304 C7.00069565,7.73843478 7.00069565,7.40765217 7.20417391,7.20417391 C7.40765217,7.00069565 7.73843478,7.00069565 7.94191304,7.20417391 L12,11.2622609 L16.058087,7.20417391 C16.2615652,7.00069565 16.5923478,7.00069565 16.7958261,7.20417391 C16.9993043,7.40765217 16.9993043,7.73843478 16.7958261,7.94191304 L12.7377391,12 L16.7958261,16.058087 Z"></path>
        </g>
    </g>
</svg>