<?xml version="1.0" encoding="UTF-8"?>
<svg width="24px" height="24px" fill="#000000" viewBox="0 0 24 24" version="1.1" xmlns="http://www.w3.org/2000/svg" xmlns:xlink="http://www.w3.org/1999/xlink">
    <title>icon-locked</title>
    <desc>Created with Sketch.</desc>
    <g stroke="none" stroke-width="1" fill="inherit" fill-rule="evenodd">
        <g id="icon-locked">
             <path d="M11.5,15.8662178 L11.5,19 L12.5,19 L12.5,15.8662178 C12.7989007,15.6933131 13,15.3701412 13,15 C13,14.4477153 12.5522847,14 12,14 C11.4477153,14 11,14.4477153 11,15 C11,15.3701412 11.2010993,15.6933131 11.5,15.8662178 Z M3,9 L21,9 L21,24 L3,24 L3,9 Z M6,0 L18,0 L18,9 L6,9 L6,0 Z M8,2 L8,9 L16,9 L16,2 L8,2 Z"></path>
        </g>
    </g>
</svg>