<svg id="i-picture-file" width="26px" height="32px" viewBox="0 0 26 32" version="1.1" xmlns="http://www.w3.org/2000/svg" xmlns:xlink="http://www.w3.org/1999/xlink">
  <g id="Page-1" stroke="none" stroke-width="1" fill="none" fill-rule="evenodd">
    <g id="32" transform="translate(-3.000000, 0.000000)" fill="#000000">
      <g id="File-icon" transform="translate(3.000000, 0.000000)">
        <path d="M0.679117148,0 C0.302886248,0 0,0.311652174 0,0.695652174 C0,1.07965217 0.302886248,1.39130435 0.679117148,1.39130435 C1.05263158,1.39130435 1.3582343,1.07965217 1.3582343,0.695652174 C1.3582343,0.311652174 1.05263158,0 0.679117148,0 L0.679117148,0 L0.679117148,0 Z" id="Shape"></path>
        <path d="M3.39558574,0 C3.01935484,0 2.71646859,0.311652174 2.71646859,0.695652174 C2.71646859,1.07965217 3.01935484,1.39130435 3.39558574,1.39130435 C3.76910017,1.39130435 4.07470289,1.07965217 4.07470289,0.695652174 C4.07470289,0.311652174 3.76910017,0 3.39558574,0 L3.39558574,0 L3.39558574,0 Z" id="Shape"></path>
        <path d="M6.11205433,0 C5.73582343,0 5.43293718,0.311652174 5.43293718,0.695652174 C5.43293718,1.07965217 5.73582343,1.39130435 6.11205433,1.39130435 C6.48556876,1.39130435 6.79117148,1.07965217 6.79117148,0.695652174 C6.79117148,0.311652174 6.48556876,0 6.11205433,0 L6.11205433,0 L6.11205433,0 Z" id="Shape"></path>
        <path d="M8.82852292,0 C8.45229202,0 8.14940577,0.311652174 8.14940577,0.695652174 C8.14940577,1.07965217 8.45229202,1.39130435 8.82852292,1.39130435 C9.20203735,1.39130435 9.50764007,1.07965217 9.50764007,0.695652174 C9.50764007,0.311652174 9.20203735,0 8.82852292,0 L8.82852292,0 L8.82852292,0 Z" id="Shape"></path>
        <path d="M11.5449915,0 C11.1687606,0 10.8658744,0.311652174 10.8658744,0.695652174 C10.8658744,1.07965217 11.1687606,1.39130435 11.5449915,1.39130435 C11.9185059,1.39130435 12.2241087,1.07965217 12.2241087,0.695652174 C12.2241087,0.311652174 11.9185059,0 11.5449915,0 L11.5449915,0 L11.5449915,0 Z" id="Shape"></path>
        <path d="M14.2614601,0 C13.8852292,0 13.582343,0.311652174 13.582343,0.695652174 C13.582343,1.07965217 13.8852292,1.39130435 14.2614601,1.39130435 C14.6349745,1.39130435 14.9405772,1.07965217 14.9405772,0.695652174 C14.9405772,0.311652174 14.6349745,0 14.2614601,0 L14.2614601,0 L14.2614601,0 Z" id="Shape"></path>
        <path d="M16.9779287,0 C16.6016978,0 16.2988115,0.311652174 16.2988115,0.695652174 C16.2988115,1.07965217 16.6016978,1.39130435 16.9779287,1.39130435 C17.3514431,1.39130435 17.6570458,1.07965217 17.6570458,0.695652174 C17.6570458,0.311652174 17.3514431,0 16.9779287,0 L16.9779287,0 L16.9779287,0 Z" id="Shape"></path>
        <path d="M16.9779287,2.7826087 C16.6016978,2.7826087 16.2988115,3.09426087 16.2988115,3.47826087 C16.2988115,3.86226087 16.6016978,4.17391304 16.9779287,4.17391304 C17.3514431,4.17391304 17.6570458,3.86226087 17.6570458,3.47826087 C17.6570458,3.09426087 17.3514431,2.7826087 16.9779287,2.7826087 L16.9779287,2.7826087 L16.9779287,2.7826087 Z" id="Shape"></path>
        <path d="M16.9779287,5.56521739 C16.6016978,5.56521739 16.2988115,5.87686957 16.2988115,6.26086957 C16.2988115,6.64486957 16.6016978,6.95652174 16.9779287,6.95652174 C17.3514431,6.95652174 17.6570458,6.64486957 17.6570458,6.26086957 C17.6570458,5.87686957 17.3514431,5.56521739 16.9779287,5.56521739 L16.9779287,5.56521739 L16.9779287,5.56521739 Z" id="Shape"></path>
        <path d="M20.3735144,2.7826087 C19.9972835,2.7826087 19.6943973,3.09426087 19.6943973,3.47826087 C19.6943973,3.86226087 19.9972835,4.17391304 20.3735144,4.17391304 C20.7470289,4.17391304 21.0526316,3.86226087 21.0526316,3.47826087 C21.0526316,3.09426087 20.7470289,2.7826087 20.3735144,2.7826087 L20.3735144,2.7826087 L20.3735144,2.7826087 Z" id="Shape"></path>
        <path d="M16.9779287,8.34782609 C16.6016978,8.34782609 16.2988115,8.65947826 16.2988115,9.04347826 C16.2988115,9.42747826 16.6016978,9.73913043 16.9779287,9.73913043 C17.3514431,9.73913043 17.6570458,9.42747826 17.6570458,9.04347826 C17.6570458,8.65947826 17.3514431,8.34782609 16.9779287,8.34782609 L16.9779287,8.34782609 L16.9779287,8.34782609 Z" id="Shape"></path>
        <path d="M22.4108659,4.86956522 C22.034635,4.86956522 21.7317487,5.18121739 21.7317487,5.56521739 C21.7317487,5.94921739 22.034635,6.26086957 22.4108659,6.26086957 C22.7843803,6.26086957 23.089983,5.94921739 23.089983,5.56521739 C23.089983,5.18121739 22.7843803,4.86956522 22.4108659,4.86956522 L22.4108659,4.86956522 L22.4108659,4.86956522 Z" id="Shape"></path>
        <path d="M3.39558574,30.6086957 C3.01935484,30.6086957 2.71646859,30.9203478 2.71646859,31.3043478 C2.71646859,31.6883478 3.01935484,32 3.39558574,32 C3.76910017,32 4.07470289,31.6883478 4.07470289,31.3043478 C4.07470289,30.9203478 3.76910017,30.6086957 3.39558574,30.6086957 L3.39558574,30.6086957 L3.39558574,30.6086957 Z" id="Shape"></path>
        <path d="M6.11205433,30.6086957 C5.73582343,30.6086957 5.43293718,30.9203478 5.43293718,31.3043478 C5.43293718,31.6883478 5.73582343,32 6.11205433,32 C6.48556876,32 6.79117148,31.6883478 6.79117148,31.3043478 C6.79117148,30.9203478 6.48556876,30.6086957 6.11205433,30.6086957 L6.11205433,30.6086957 L6.11205433,30.6086957 Z" id="Shape"></path>
        <path d="M8.82852292,30.6086957 C8.45229202,30.6086957 8.14940577,30.9203478 8.14940577,31.3043478 C8.14940577,31.6883478 8.45229202,32 8.82852292,32 C9.20203735,32 9.50764007,31.6883478 9.50764007,31.3043478 C9.50764007,30.9203478 9.20203735,30.6086957 8.82852292,30.6086957 L8.82852292,30.6086957 L8.82852292,30.6086957 Z" id="Shape"></path>
        <path d="M11.5449915,30.6086957 C11.1687606,30.6086957 10.8658744,30.9203478 10.8658744,31.3043478 C10.8658744,31.6883478 11.1687606,32 11.5449915,32 C11.9185059,32 12.2241087,31.6883478 12.2241087,31.3043478 C12.2241087,30.9203478 11.9185059,30.6086957 11.5449915,30.6086957 L11.5449915,30.6086957 L11.5449915,30.6086957 Z" id="Shape"></path>
        <path d="M14.2614601,30.6086957 C13.8852292,30.6086957 13.582343,30.9203478 13.582343,31.3043478 C13.582343,31.6883478 13.8852292,32 14.2614601,32 C14.6349745,32 14.9405772,31.6883478 14.9405772,31.3043478 C14.9405772,30.9203478 14.6349745,30.6086957 14.2614601,30.6086957 L14.2614601,30.6086957 L14.2614601,30.6086957 Z" id="Shape"></path>
        <path d="M16.9779287,30.6086957 C16.6016978,30.6086957 16.2988115,30.9203478 16.2988115,31.3043478 C16.2988115,31.6883478 16.6016978,32 16.9779287,32 C17.3514431,32 17.6570458,31.6883478 17.6570458,31.3043478 C17.6570458,30.9203478 17.3514431,30.6086957 16.9779287,30.6086957 L16.9779287,30.6086957 L16.9779287,30.6086957 Z" id="Shape"></path>
        <path d="M19.6943973,30.6086957 C19.3181664,30.6086957 19.0152801,30.9203478 19.0152801,31.3043478 C19.0152801,31.6883478 19.3181664,32 19.6943973,32 C20.0679117,32 20.3735144,31.6883478 20.3735144,31.3043478 C20.3735144,30.9203478 20.0679117,30.6086957 19.6943973,30.6086957 L19.6943973,30.6086957 L19.6943973,30.6086957 Z" id="Shape"></path>
        <path d="M22.4108659,30.6086957 C22.034635,30.6086957 21.7317487,30.9203478 21.7317487,31.3043478 C21.7317487,31.6883478 22.034635,32 22.4108659,32 C22.7843803,32 23.089983,31.6883478 23.089983,31.3043478 C23.089983,30.9203478 22.7843803,30.6086957 22.4108659,30.6086957 L22.4108659,30.6086957 L22.4108659,30.6086957 Z" id="Shape"></path>
        <path d="M0.679117148,2.7826087 C0.302886248,2.7826087 0,3.09426087 0,3.47826087 C0,3.86226087 0.302886248,4.17391304 0.679117148,4.17391304 C1.05263158,4.17391304 1.3582343,3.86226087 1.3582343,3.47826087 C1.3582343,3.09426087 1.05263158,2.7826087 0.679117148,2.7826087 L0.679117148,2.7826087 L0.679117148,2.7826087 Z" id="Shape"></path>
        <path d="M0.679117148,5.56521739 C0.302886248,5.56521739 0,5.87686957 0,6.26086957 C0,6.64486957 0.302886248,6.95652174 0.679117148,6.95652174 C1.05263158,6.95652174 1.3582343,6.64486957 1.3582343,6.26086957 C1.3582343,5.87686957 1.05263158,5.56521739 0.679117148,5.56521739 L0.679117148,5.56521739 L0.679117148,5.56521739 Z" id="Shape"></path>
        <path d="M0.679117148,8.34782609 C0.302886248,8.34782609 0,8.65947826 0,9.04347826 C0,9.42747826 0.302886248,9.73913043 0.679117148,9.73913043 C1.05263158,9.73913043 1.3582343,9.42747826 1.3582343,9.04347826 C1.3582343,8.65947826 1.05263158,8.34782609 0.679117148,8.34782609 L0.679117148,8.34782609 L0.679117148,8.34782609 Z" id="Shape"></path>
        <path d="M25.1273345,8.34782609 C24.7511036,8.34782609 24.4482173,8.65947826 24.4482173,9.04347826 C24.4482173,9.42747826 24.7511036,9.73913043 25.1273345,9.73913043 C25.5008489,9.73913043 25.8064516,9.42747826 25.8064516,9.04347826 C25.8064516,8.65947826 25.5008489,8.34782609 25.1273345,8.34782609 L25.1273345,8.34782609 L25.1273345,8.34782609 Z" id="Shape"></path>
        <path d="M22.4108659,8.34782609 C22.034635,8.34782609 21.7317487,8.65947826 21.7317487,9.04347826 C21.7317487,9.42747826 22.034635,9.73913043 22.4108659,9.73913043 C22.7843803,9.73913043 23.089983,9.42747826 23.089983,9.04347826 C23.089983,8.65947826 22.7843803,8.34782609 22.4108659,8.34782609 L22.4108659,8.34782609 L22.4108659,8.34782609 Z" id="Shape"></path>
        <path d="M19.6943973,8.34782609 C19.3181664,8.34782609 19.0152801,8.65947826 19.0152801,9.04347826 C19.0152801,9.42747826 19.3181664,9.73913043 19.6943973,9.73913043 C20.0679117,9.73913043 20.3735144,9.42747826 20.3735144,9.04347826 C20.3735144,8.65947826 20.0679117,8.34782609 19.6943973,8.34782609 L19.6943973,8.34782609 L19.6943973,8.34782609 Z" id="Shape"></path>
        <path d="M0.679117148,11.1304348 C0.302886248,11.1304348 0,11.442087 0,11.826087 C0,12.210087 0.302886248,12.5217391 0.679117148,12.5217391 C1.05263158,12.5217391 1.3582343,12.210087 1.3582343,11.826087 C1.3582343,11.442087 1.05263158,11.1304348 0.679117148,11.1304348 L0.679117148,11.1304348 L0.679117148,11.1304348 Z" id="Shape"></path>
        <path d="M25.1273345,11.1304348 C24.7511036,11.1304348 24.4482173,11.442087 24.4482173,11.826087 C24.4482173,12.210087 24.7511036,12.5217391 25.1273345,12.5217391 C25.5008489,12.5217391 25.8064516,12.210087 25.8064516,11.826087 C25.8064516,11.442087 25.5008489,11.1304348 25.1273345,11.1304348 L25.1273345,11.1304348 L25.1273345,11.1304348 Z" id="Shape"></path>
        <path d="M0.679117148,13.9130435 C0.302886248,13.9130435 0,14.2246957 0,14.6086957 C0,14.9926957 0.302886248,15.3043478 0.679117148,15.3043478 C1.05263158,15.3043478 1.3582343,14.9926957 1.3582343,14.6086957 C1.3582343,14.2246957 1.05263158,13.9130435 0.679117148,13.9130435 L0.679117148,13.9130435 L0.679117148,13.9130435 Z" id="Shape"></path>
        <path d="M25.1273345,13.9130435 C24.7511036,13.9130435 24.4482173,14.2246957 24.4482173,14.6086957 C24.4482173,14.9926957 24.7511036,15.3043478 25.1273345,15.3043478 C25.5008489,15.3043478 25.8064516,14.9926957 25.8064516,14.6086957 C25.8064516,14.2246957 25.5008489,13.9130435 25.1273345,13.9130435 L25.1273345,13.9130435 L25.1273345,13.9130435 Z" id="Shape"></path>
        <path d="M0.679117148,16.6956522 C0.302886248,16.6956522 0,17.0073043 0,17.3913043 C0,17.7753043 0.302886248,18.0869565 0.679117148,18.0869565 C1.05263158,18.0869565 1.3582343,17.7753043 1.3582343,17.3913043 C1.3582343,17.0073043 1.05263158,16.6956522 0.679117148,16.6956522 L0.679117148,16.6956522 L0.679117148,16.6956522 Z" id="Shape"></path>
        <path d="M25.1273345,16.6956522 C24.7511036,16.6956522 24.4482173,17.0073043 24.4482173,17.3913043 C24.4482173,17.7753043 24.7511036,18.0869565 25.1273345,18.0869565 C25.5008489,18.0869565 25.8064516,17.7753043 25.8064516,17.3913043 C25.8064516,17.0073043 25.5008489,16.6956522 25.1273345,16.6956522 L25.1273345,16.6956522 L25.1273345,16.6956522 Z" id="Shape"></path>
        <path d="M0.679117148,19.4782609 C0.302886248,19.4782609 0,19.789913 0,20.173913 C0,20.557913 0.302886248,20.8695652 0.679117148,20.8695652 C1.05263158,20.8695652 1.3582343,20.557913 1.3582343,20.173913 C1.3582343,19.789913 1.05263158,19.4782609 0.679117148,19.4782609 L0.679117148,19.4782609 L0.679117148,19.4782609 Z" id="Shape"></path>
        <path d="M25.1273345,19.4782609 C24.7511036,19.4782609 24.4482173,19.789913 24.4482173,20.173913 C24.4482173,20.557913 24.7511036,20.8695652 25.1273345,20.8695652 C25.5008489,20.8695652 25.8064516,20.557913 25.8064516,20.173913 C25.8064516,19.789913 25.5008489,19.4782609 25.1273345,19.4782609 L25.1273345,19.4782609 L25.1273345,19.4782609 Z" id="Shape"></path>
        <path d="M0.679117148,22.2608696 C0.302886248,22.2608696 0,22.5725217 0,22.9565217 C0,23.3405217 0.302886248,23.6521739 0.679117148,23.6521739 C1.05263158,23.6521739 1.3582343,23.3405217 1.3582343,22.9565217 C1.3582343,22.5725217 1.05263158,22.2608696 0.679117148,22.2608696 L0.679117148,22.2608696 L0.679117148,22.2608696 Z" id="Shape"></path>
        <path d="M25.1273345,22.2608696 C24.7511036,22.2608696 24.4482173,22.5725217 24.4482173,22.9565217 C24.4482173,23.3405217 24.7511036,23.6521739 25.1273345,23.6521739 C25.5008489,23.6521739 25.8064516,23.3405217 25.8064516,22.9565217 C25.8064516,22.5725217 25.5008489,22.2608696 25.1273345,22.2608696 L25.1273345,22.2608696 L25.1273345,22.2608696 Z" id="Shape"></path>
        <path d="M0.679117148,25.0434783 C0.302886248,25.0434783 0,25.3551304 0,25.7391304 C0,26.1231304 0.302886248,26.4347826 0.679117148,26.4347826 C1.05263158,26.4347826 1.3582343,26.1231304 1.3582343,25.7391304 C1.3582343,25.3551304 1.05263158,25.0434783 0.679117148,25.0434783 L0.679117148,25.0434783 L0.679117148,25.0434783 Z" id="Shape"></path>
        <path d="M25.1273345,25.0434783 C24.7511036,25.0434783 24.4482173,25.3551304 24.4482173,25.7391304 C24.4482173,26.1231304 24.7511036,26.4347826 25.1273345,26.4347826 C25.5008489,26.4347826 25.8064516,26.1231304 25.8064516,25.7391304 C25.8064516,25.3551304 25.5008489,25.0434783 25.1273345,25.0434783 L25.1273345,25.0434783 L25.1273345,25.0434783 Z" id="Shape"></path>
        <path d="M0.679117148,27.826087 C0.302886248,27.826087 0,28.1377391 0,28.5217391 C0,28.9057391 0.302886248,29.2173913 0.679117148,29.2173913 C1.05263158,29.2173913 1.3582343,28.9057391 1.3582343,28.5217391 C1.3582343,28.1377391 1.05263158,27.826087 0.679117148,27.826087 L0.679117148,27.826087 L0.679117148,27.826087 Z" id="Shape"></path>
        <path d="M25.1273345,27.826087 C24.7511036,27.826087 24.4482173,28.1377391 24.4482173,28.5217391 C24.4482173,28.9057391 24.7511036,29.2173913 25.1273345,29.2173913 C25.5008489,29.2173913 25.8064516,28.9057391 25.8064516,28.5217391 C25.8064516,28.1377391 25.5008489,27.826087 25.1273345,27.826087 L25.1273345,27.826087 L25.1273345,27.826087 Z" id="Shape"></path>
        <path d="M0.679117148,30.6086957 C0.302886248,30.6086957 0,30.9203478 0,31.3043478 C0,31.6883478 0.302886248,32 0.679117148,32 C1.05263158,32 1.3582343,31.6883478 1.3582343,31.3043478 C1.3582343,30.9203478 1.05263158,30.6086957 0.679117148,30.6086957 L0.679117148,30.6086957 L0.679117148,30.6086957 Z" id="Shape"></path>
        <path d="M25.1273345,30.6086957 C24.7511036,30.6086957 24.4482173,30.9203478 24.4482173,31.3043478 C24.4482173,31.6883478 24.7511036,32 25.1273345,32 C25.5008489,32 25.8064516,31.6883478 25.8064516,31.3043478 C25.8064516,30.9203478 25.5008489,30.6086957 25.1273345,30.6086957 L25.1273345,30.6086957 L25.1273345,30.6086957 Z" id="Shape"></path>
      </g>
    </g>
  </g>
</svg>
