<?xml version="1.0" encoding="UTF-8"?>
<svg width="24px" height="24px" fill="#000000" viewBox="0 0 24 24" version="1.1" xmlns="http://www.w3.org/2000/svg" xmlns:xlink="http://www.w3.org/1999/xlink">
    <title>icon-refresh</title>
    <desc>Created with Sketch.</desc>
    <g stroke="none" stroke-width="1" fill="inherit" fill-rule="evenodd">
        <g id="icon-refresh">
            <path d="M19.3953002,5.197 C19.7613002,5.611 19.7243002,6.243 19.3103002,6.609 C18.8973002,6.974 18.2653002,6.938 17.8983002,6.525 C16.4743002,4.92 14.4303002,4 12.2863002,4 C8.24230024,4 4.94530024,7.219 4.80030024,11.227 L6.22530024,9.521 C6.57930024,9.097 7.20930024,9.04 7.63230024,9.396 C8.05630024,9.75 8.11330024,10.38 7.75930024,10.804 L4.49230024,14.708 C4.10130024,15.099 3.46930024,15.099 3.07830024,14.708 L0.16930024,10.407 C-0.13769976,9.948 -0.01569976,9.327 0.44230024,9.019 C0.90030024,8.708 1.52330024,8.833 1.83030024,9.291 L2.82330024,10.771 C3.19830024,5.873 7.29430024,2 12.2863002,2 C15.0013002,2 17.5923002,3.165 19.3953002,5.197 Z M23.8323002,12.596 C24.1403002,13.055 24.0183002,13.676 23.5603002,13.984 C23.1023002,14.294 22.4793002,14.169 22.1723002,13.711 L21.1793002,12.231 C20.8043002,17.129 16.7083002,21.002 11.7163002,21.002 C9.00230024,21.002 6.41130024,19.837 4.60830024,17.805 C4.24230024,17.391 4.27930024,16.759 4.69230024,16.393 C5.10430024,16.026 5.73830024,16.063 6.10430024,16.477 C7.52730024,18.082 9.57230024,19.002 11.7163002,19.002 C15.7603002,19.002 19.0563002,15.783 19.2023002,11.774 L17.7773002,13.48 C17.4233002,13.905 16.7933002,13.961 16.3693002,13.607 C15.9453002,13.253 15.8883002,12.623 16.2423002,12.199 L19.5093002,8.295 C19.9003002,7.904 20.5323002,7.904 20.9233002,8.295 L23.8323002,12.596 Z"></path>
        </g>
    </g>
</svg>