<?xml version="1.0" encoding="UTF-8"?>
<svg width="24px" height="24px" fill="#000000" viewBox="0 0 24 24" version="1.1" xmlns="http://www.w3.org/2000/svg" xmlns:xlink="http://www.w3.org/1999/xlink">
    <title>icon-developer</title>
    <g id="icon-developer" stroke="none" stroke-width="1" fill="inherit" fill-rule="evenodd" >
        <path d="M21.6,0 C22.9254834,0 24,1.0745166 24,2.4 L24,21.6 C24,22.9254834 22.9254834,24 21.6,24 L2.4,24 C1.0745166,24 0,22.9254834 0,21.6 L0,2.4 C0,1.0745166 1.0745166,0 2.4,0 L21.6,0 Z M21.5652174,1 L2.43478261,1 C1.64237405,1 1,1.64237405 1,2.43478261 L1,21.5652174 C1,22.3576259 1.64237405,23 2.43478261,23 L21.5652174,23 C22.3576259,23 23,22.3576259 23,21.5652174 L23,2.43478261 C23,1.64237405 22.3576259,1 21.5652174,1 Z M10.9192086,4 C13.4770669,4 15.463307,4.68945959 16.8779885,6.06839945 C18.2926699,7.44733932 19,9.37344865 19,11.8467852 C19,14.4806333 18.2658771,16.497941 16.7976092,17.8987688 C15.3293414,19.2995966 13.2091372,20 10.4369332,20 L6,20 L6,4 L10.9192086,4 Z M11.0906843,6.77975376 L9.3223413,6.77975376 L9.3223413,17.1983584 L10.7477329,17.1983584 C13.9486283,17.1983584 15.5490519,15.443702 15.5490519,11.9343365 C15.5490519,8.49793083 14.0629442,6.77975376 11.0906843,6.77975376 Z" id="path-1"></path>
    </g>
</svg>
