<?xml version="1.0" encoding="UTF-8"?>
<svg width="24px" height="24px" fill="#000000" viewBox="0 0 24 24" version="1.1" xmlns="http://www.w3.org/2000/svg" xmlns:xlink="http://www.w3.org/1999/xlink">
    <title>icon-success</title>
    <desc>Created with Sketch.</desc>
    <g stroke="none" stroke-width="1" fill="inherit" fill-rule="evenodd">
        <g id="icon-success">
            <path d="M12.002,0 C5.385,0 0.002,5.385 0.002,12 C0.002,18.616 5.385,24 12.002,24 C18.618,24 24.002,18.616 24.002,12 C24.001,5.385 18.618,0 12.002,0 Z M17.342,8.866 L9.84,15.867 C9.643,16.049 9.337,16.049 9.145,15.854 L6.647,13.354 C6.452,13.159 6.452,12.842 6.647,12.647 C6.842,12.451 7.159,12.451 7.354,12.647 L9.512,14.805 L16.659,8.135 C16.86,7.947 17.177,7.957 17.365,8.159 C17.555,8.36 17.544,8.677 17.342,8.866 Z"></path>
        </g>
    </g>
</svg>