<?xml version="1.0" encoding="UTF-8"?>
<svg width="24px" height="24px" viewBox="0 0 24 24" fill="#000000" version="1.1" xmlns="http://www.w3.org/2000/svg" xmlns:xlink="http://www.w3.org/1999/xlink">
    <title>icon-switch</title>
    <desc>Created with Sketch.</desc>
    <defs></defs>
    <g id="icon-switch" stroke="none" stroke-width="1" fill="inherit" fill-rule="evenodd">
        <path d="M21.2462236,15.7894313 L20.3212317,14.5723503 C20.0271334,14.1853831 20.1463403,13.6625516 20.5874878,13.4045735 C21.0286354,13.1465954 21.6246699,13.2511617 21.9187683,13.6381289 L23.8314876,16.1548366 C23.9377814,16.2903762 24,16.4545781 24,16.6315271 C24,16.8084762 23.9377814,16.9726781 23.8314876,17.1082176 L21.9187683,19.6249254 C21.6246699,20.0118926 21.0286354,20.1164589 20.5874878,19.8584808 C20.1463403,19.6005026 20.0271334,19.0776711 20.3212317,18.6907039 L21.2462236,17.473623 L17.76,17.473623 C16.2395337,17.473623 14.8644352,16.9169092 13.6552403,16.0077502 C12.9497359,15.4773017 12.4460687,14.9471317 12.1612317,14.5723503 C11.8671334,14.1853831 11.9863403,13.6625516 12.4274878,13.4045735 C12.8686354,13.1465954 13.4646699,13.2511617 13.7587683,13.6381289 C13.9539313,13.8949194 14.3502641,14.3121072 14.9047597,14.7290165 C15.7955648,15.3987873 16.7604663,15.7894313 17.76,15.7894313 L21.2462236,15.7894313 Z M23.8314876,6.89178236 C23.9377814,7.02732191 24,7.1915238 24,7.36847286 C24,7.54542193 23.9377814,7.70962382 23.8314876,7.84516337 L21.9187683,10.3618711 C21.6246699,10.7488383 21.0286354,10.8534046 20.5874878,10.5954265 C20.1463403,10.3374484 20.0271334,9.81461686 20.3212317,9.42764966 L21.2462236,8.21056871 L17.76,8.21056871 C16.2483948,8.21056871 15.1280338,9.25673454 12.809915,12.4521006 C10.0880338,16.2040252 8.72839484,17.473623 6.24,17.473623 L0.96,17.473623 C0.42980664,17.473623 0,17.0966038 0,16.6315271 C0,16.1664504 0.42980664,15.7894313 0.96,15.7894313 L6.24,15.7894313 C7.75160516,15.7894313 8.87196619,14.7432655 11.190085,11.5478994 C13.9119662,7.79597475 15.2716052,6.52637702 17.76,6.52637702 L21.2462236,6.52637702 L20.3212317,5.30929606 C20.0271334,4.92232887 20.1463403,4.39949737 20.5874878,4.14151924 C21.0286354,3.88354111 21.6246699,3.98810741 21.9187683,4.37507461 L23.8314876,6.89178236 Z M11.4423792,9.98409051 C11.6512326,10.4115634 11.4254871,10.9066138 10.9381625,11.0898165 C10.4508379,11.2730192 9.88647417,11.074999 9.67762077,10.6475261 C9.53274672,10.3510036 9.21824708,9.86822447 8.75111366,9.3901693 C8.01727373,8.63917192 7.17965122,8.21056871 6.24,8.21056871 L0.96,8.21056871 C0.42980664,8.21056871 0,7.83354956 0,7.36847286 C0,6.90339617 0.42980664,6.52637702 0.96,6.52637702 L6.24,6.52637702 C7.82034878,6.52637702 9.14272627,7.2030246 10.2088863,8.29411188 C10.8217529,8.9213075 11.2272533,9.54377916 11.4423792,9.98409051 Z"></path>
    </g>
</svg>
